<mxfile host="app.diagrams.net" agent="Mozilla/5.0 (X11; Linux x86_64) AppleWebKit/537.36 (KHTML, like Gecko) Chrome/132.0.0.0 Safari/537.36" version="26.0.14" pages="3">
  <diagram name="Application Architecture" id="Wp-MP1nOANgL5KK5XDyJ">
    <mxGraphModel dx="1434" dy="754" grid="1" gridSize="10" guides="1" tooltips="1" connect="1" arrows="1" fold="1" page="1" pageScale="1" pageWidth="850" pageHeight="1100" math="0" shadow="0">
      <root>
        <mxCell id="0" />
        <mxCell id="1" parent="0" />
        <mxCell id="Fhp9Y67Ts3Q7yKnRmbBL-16" value="" style="ellipse;whiteSpace=wrap;html=1;aspect=fixed;strokeColor=light-dark(#908e8e, #ededed);" parent="1" vertex="1">
          <mxGeometry x="270" y="73" width="500" height="500" as="geometry" />
        </mxCell>
        <mxCell id="Fhp9Y67Ts3Q7yKnRmbBL-1" value="Business" style="rounded=1;whiteSpace=wrap;html=1;fillColor=#fff2cc;strokeColor=#d6b656;" parent="1" vertex="1">
          <mxGeometry x="10" y="10" width="120" height="40" as="geometry" />
        </mxCell>
        <mxCell id="Fhp9Y67Ts3Q7yKnRmbBL-2" value="Application" style="rounded=1;whiteSpace=wrap;html=1;fillColor=#dae8fc;strokeColor=#6c8ebf;" parent="1" vertex="1">
          <mxGeometry x="10" y="60" width="120" height="40" as="geometry" />
        </mxCell>
        <mxCell id="Fhp9Y67Ts3Q7yKnRmbBL-3" value="Technology" style="rounded=1;whiteSpace=wrap;html=1;fillColor=#d5e8d4;strokeColor=#82b366;" parent="1" vertex="1">
          <mxGeometry x="10" y="110" width="120" height="40" as="geometry" />
        </mxCell>
        <mxCell id="Fhp9Y67Ts3Q7yKnRmbBL-4" value="Motivation" style="rounded=1;whiteSpace=wrap;html=1;horizontal=0;fillColor=#e1d5e7;strokeColor=#9673a6;" parent="1" vertex="1">
          <mxGeometry x="140" y="10" width="50" height="140" as="geometry" />
        </mxCell>
        <mxCell id="Fhp9Y67Ts3Q7yKnRmbBL-39" style="edgeStyle=orthogonalEdgeStyle;rounded=0;orthogonalLoop=1;jettySize=auto;html=1;endArrow=none;startFill=0;strokeColor=#908E8E;" parent="1" source="Fhp9Y67Ts3Q7yKnRmbBL-5" target="Fhp9Y67Ts3Q7yKnRmbBL-8" edge="1">
          <mxGeometry relative="1" as="geometry" />
        </mxCell>
        <mxCell id="Fhp9Y67Ts3Q7yKnRmbBL-5" value="" style="ellipse;whiteSpace=wrap;html=1;aspect=fixed;fillColor=#dae8fc;strokeColor=#6c8ebf;" parent="1" vertex="1">
          <mxGeometry x="475" y="273" width="80" height="80" as="geometry" />
        </mxCell>
        <mxCell id="Fhp9Y67Ts3Q7yKnRmbBL-6" value="" style="html=1;outlineConnect=0;whiteSpace=wrap;fillColor=#99ffff;shape=mxgraph.archimate3.component;strokeWidth=2;" parent="1" vertex="1">
          <mxGeometry x="491" y="293" width="48" height="40" as="geometry" />
        </mxCell>
        <mxCell id="Fhp9Y67Ts3Q7yKnRmbBL-7" value="Application Component" style="text;html=1;align=center;verticalAlign=middle;resizable=0;points=[];autosize=1;strokeColor=none;fillColor=none;" parent="1" vertex="1">
          <mxGeometry x="440" y="353" width="150" height="30" as="geometry" />
        </mxCell>
        <mxCell id="Fhp9Y67Ts3Q7yKnRmbBL-8" value="" style="ellipse;whiteSpace=wrap;html=1;aspect=fixed;fillColor=#dae8fc;strokeColor=#6c8ebf;" parent="1" vertex="1">
          <mxGeometry x="475" y="43" width="80" height="80" as="geometry" />
        </mxCell>
        <mxCell id="Fhp9Y67Ts3Q7yKnRmbBL-37" style="rounded=0;orthogonalLoop=1;jettySize=auto;html=1;endArrow=none;startFill=0;strokeColor=#908E8E;entryX=1.004;entryY=0.487;entryDx=0;entryDy=0;entryPerimeter=0;" parent="1" source="Fhp9Y67Ts3Q7yKnRmbBL-9" target="Fhp9Y67Ts3Q7yKnRmbBL-5" edge="1">
          <mxGeometry relative="1" as="geometry">
            <mxPoint x="560" y="312" as="targetPoint" />
          </mxGeometry>
        </mxCell>
        <mxCell id="Fhp9Y67Ts3Q7yKnRmbBL-9" value="" style="ellipse;whiteSpace=wrap;html=1;aspect=fixed;fillColor=#fff2cc;strokeColor=#d6b656;" parent="1" vertex="1">
          <mxGeometry x="720" y="272" width="80" height="80" as="geometry" />
        </mxCell>
        <mxCell id="Fhp9Y67Ts3Q7yKnRmbBL-10" value="" style="ellipse;whiteSpace=wrap;html=1;aspect=fixed;fillColor=#fff2cc;strokeColor=#d6b656;" parent="1" vertex="1">
          <mxGeometry x="235" y="273" width="80" height="80" as="geometry" />
        </mxCell>
        <mxCell id="Fhp9Y67Ts3Q7yKnRmbBL-11" value="" style="ellipse;whiteSpace=wrap;html=1;aspect=fixed;fillColor=#dae8fc;strokeColor=#6c8ebf;" parent="1" vertex="1">
          <mxGeometry x="475" y="523" width="80" height="80" as="geometry" />
        </mxCell>
        <mxCell id="Fhp9Y67Ts3Q7yKnRmbBL-12" value="" style="ellipse;whiteSpace=wrap;html=1;aspect=fixed;fillColor=#e1d5e7;strokeColor=#9673a6;" parent="1" vertex="1">
          <mxGeometry x="630" y="103" width="80" height="80" as="geometry" />
        </mxCell>
        <mxCell id="Fhp9Y67Ts3Q7yKnRmbBL-13" value="" style="ellipse;whiteSpace=wrap;html=1;aspect=fixed;fillColor=#dae8fc;strokeColor=#6c8ebf;" parent="1" vertex="1">
          <mxGeometry x="320" y="107" width="80" height="80" as="geometry" />
        </mxCell>
        <mxCell id="Fhp9Y67Ts3Q7yKnRmbBL-14" value="" style="ellipse;whiteSpace=wrap;html=1;aspect=fixed;fillColor=#d5e8d4;strokeColor=#82b366;" parent="1" vertex="1">
          <mxGeometry x="640" y="453" width="80" height="80" as="geometry" />
        </mxCell>
        <mxCell id="Fhp9Y67Ts3Q7yKnRmbBL-15" value="" style="ellipse;whiteSpace=wrap;html=1;aspect=fixed;fillColor=#d5e8d4;strokeColor=#82b366;" parent="1" vertex="1">
          <mxGeometry x="310" y="453" width="80" height="80" as="geometry" />
        </mxCell>
        <mxCell id="Fhp9Y67Ts3Q7yKnRmbBL-17" value="" style="html=1;outlineConnect=0;whiteSpace=wrap;fillColor=#ffff99;verticalLabelPosition=bottom;verticalAlign=top;align=center;shape=mxgraph.archimate3.actor;strokeWidth=2;" parent="1" vertex="1">
          <mxGeometry x="749" y="292" width="26.5" height="50" as="geometry" />
        </mxCell>
        <mxCell id="Fhp9Y67Ts3Q7yKnRmbBL-18" value="User" style="text;html=1;align=center;verticalAlign=middle;resizable=0;points=[];autosize=1;strokeColor=none;fillColor=none;" parent="1" vertex="1">
          <mxGeometry x="737.25" y="363" width="50" height="30" as="geometry" />
        </mxCell>
        <mxCell id="Fhp9Y67Ts3Q7yKnRmbBL-19" value="" style="html=1;outlineConnect=0;whiteSpace=wrap;fillColor=#ffff99;shape=mxgraph.archimate3.event;strokeWidth=2;" parent="1" vertex="1">
          <mxGeometry x="252" y="326" width="30" height="16" as="geometry" />
        </mxCell>
        <mxCell id="Fhp9Y67Ts3Q7yKnRmbBL-20" value="" style="html=1;outlineConnect=0;whiteSpace=wrap;fillColor=#ffff99;shape=mxgraph.archimate3.function;strokeWidth=2;" parent="1" vertex="1">
          <mxGeometry x="282" y="302" width="30" height="20" as="geometry" />
        </mxCell>
        <mxCell id="Fhp9Y67Ts3Q7yKnRmbBL-21" value="" style="html=1;outlineConnect=0;whiteSpace=wrap;fillColor=#ffff99;shape=mxgraph.archimate3.service;strokeWidth=2;" parent="1" vertex="1">
          <mxGeometry x="252" y="282" width="30" height="20" as="geometry" />
        </mxCell>
        <mxCell id="Fhp9Y67Ts3Q7yKnRmbBL-22" value="Business Components" style="text;html=1;align=center;verticalAlign=middle;resizable=0;points=[];autosize=1;strokeColor=none;fillColor=none;" parent="1" vertex="1">
          <mxGeometry x="220" y="353" width="140" height="30" as="geometry" />
        </mxCell>
        <mxCell id="Fhp9Y67Ts3Q7yKnRmbBL-23" value="" style="html=1;outlineConnect=0;whiteSpace=wrap;fillColor=#99ffff;shape=mxgraph.archimate3.interface;strokeWidth=2;" parent="1" vertex="1">
          <mxGeometry x="323" y="127" width="70" height="35" as="geometry" />
        </mxCell>
        <mxCell id="Fhp9Y67Ts3Q7yKnRmbBL-24" value="Interface" style="text;html=1;align=center;verticalAlign=middle;resizable=0;points=[];autosize=1;strokeColor=none;fillColor=none;" parent="1" vertex="1">
          <mxGeometry x="315" y="71" width="70" height="30" as="geometry" />
        </mxCell>
        <mxCell id="Fhp9Y67Ts3Q7yKnRmbBL-25" value="&lt;table cellpadding=&quot;0&quot; cellspacing=&quot;0&quot; style=&quot;font-size:1em;width:100%;height:100%;&quot;&gt;&lt;tr style=&quot;height:20px;&quot;&gt;&lt;td align=&quot;center&quot;&gt;&lt;/td&gt;&lt;/tr&gt;&lt;tr&gt;&lt;td align=&quot;left&quot; valign=&quot;top&quot; style=&quot;padding:4px;&quot;&gt;&lt;/td&gt;&lt;/tr&gt;&lt;/table&gt;" style="html=1;outlineConnect=0;whiteSpace=wrap;fillColor=#99ffff;shape=mxgraph.archimate3.businessObject;overflow=fill;strokeWidth=2;" parent="1" vertex="1">
          <mxGeometry x="485" y="61" width="60" height="40" as="geometry" />
        </mxCell>
        <mxCell id="Fhp9Y67Ts3Q7yKnRmbBL-26" value="Data Object" style="text;html=1;align=center;verticalAlign=middle;resizable=0;points=[];autosize=1;strokeColor=none;fillColor=none;" parent="1" vertex="1">
          <mxGeometry x="465" y="13" width="90" height="30" as="geometry" />
        </mxCell>
        <mxCell id="Fhp9Y67Ts3Q7yKnRmbBL-27" value="" style="html=1;outlineConnect=0;whiteSpace=wrap;fillColor=#AFFFAF;shape=mxgraph.archimate3.node;strokeWidth=2;" parent="1" vertex="1">
          <mxGeometry x="320" y="473" width="50" height="40" as="geometry" />
        </mxCell>
        <mxCell id="Fhp9Y67Ts3Q7yKnRmbBL-28" value="Node" style="text;html=1;align=center;verticalAlign=middle;resizable=0;points=[];autosize=1;strokeColor=none;fillColor=none;" parent="1" vertex="1">
          <mxGeometry x="320" y="533" width="50" height="30" as="geometry" />
        </mxCell>
        <mxCell id="Fhp9Y67Ts3Q7yKnRmbBL-29" value="" style="html=1;outlineConnect=0;whiteSpace=wrap;fillColor=#99ffff;shape=mxgraph.archimate3.function;strokeWidth=2;" parent="1" vertex="1">
          <mxGeometry x="485" y="543" width="60" height="40" as="geometry" />
        </mxCell>
        <mxCell id="Fhp9Y67Ts3Q7yKnRmbBL-30" value="Application Function" style="text;html=1;align=center;verticalAlign=middle;resizable=0;points=[];autosize=1;strokeColor=none;fillColor=none;" parent="1" vertex="1">
          <mxGeometry x="455" y="593" width="130" height="30" as="geometry" />
        </mxCell>
        <mxCell id="Fhp9Y67Ts3Q7yKnRmbBL-31" value="" style="html=1;outlineConnect=0;whiteSpace=wrap;fillColor=#CCCCFF;shape=mxgraph.archimate3.constraint;strokeWidth=2;" parent="1" vertex="1">
          <mxGeometry x="635" y="123" width="70" height="35" as="geometry" />
        </mxCell>
        <mxCell id="Fhp9Y67Ts3Q7yKnRmbBL-32" value="Access&amp;nbsp;&lt;div&gt;Constraint&lt;/div&gt;" style="text;html=1;align=left;verticalAlign=middle;resizable=0;points=[];autosize=1;strokeColor=none;fillColor=none;" parent="1" vertex="1">
          <mxGeometry x="650" y="61" width="80" height="40" as="geometry" />
        </mxCell>
        <mxCell id="Fhp9Y67Ts3Q7yKnRmbBL-33" value="" style="html=1;outlineConnect=0;whiteSpace=wrap;fillColor=#AFFFAF;shape=mxgraph.archimate3.device;strokeWidth=2;" parent="1" vertex="1">
          <mxGeometry x="645" y="478" width="70" height="35" as="geometry" />
        </mxCell>
        <mxCell id="Fhp9Y67Ts3Q7yKnRmbBL-34" value="Device" style="text;html=1;align=center;verticalAlign=middle;resizable=0;points=[];autosize=1;strokeColor=none;fillColor=none;" parent="1" vertex="1">
          <mxGeometry x="660" y="538" width="60" height="30" as="geometry" />
        </mxCell>
        <mxCell id="Fhp9Y67Ts3Q7yKnRmbBL-38" style="rounded=0;orthogonalLoop=1;jettySize=auto;html=1;endArrow=none;startFill=0;strokeColor=#908E8E;entryX=1.002;entryY=0.49;entryDx=0;entryDy=0;entryPerimeter=0;" parent="1" target="Fhp9Y67Ts3Q7yKnRmbBL-10" edge="1">
          <mxGeometry relative="1" as="geometry">
            <mxPoint x="475" y="311.8" as="sourcePoint" />
            <mxPoint x="320" y="312" as="targetPoint" />
          </mxGeometry>
        </mxCell>
        <mxCell id="Fhp9Y67Ts3Q7yKnRmbBL-41" style="edgeStyle=orthogonalEdgeStyle;rounded=0;orthogonalLoop=1;jettySize=auto;html=1;endArrow=none;startFill=0;strokeColor=#908E8E;exitX=0.5;exitY=0;exitDx=0;exitDy=0;entryX=0.5;entryY=1;entryDx=0;entryDy=0;" parent="1" source="Fhp9Y67Ts3Q7yKnRmbBL-11" target="Fhp9Y67Ts3Q7yKnRmbBL-5" edge="1">
          <mxGeometry relative="1" as="geometry">
            <mxPoint x="514.76" y="502" as="sourcePoint" />
            <mxPoint x="514.76" y="352" as="targetPoint" />
          </mxGeometry>
        </mxCell>
        <mxCell id="Fhp9Y67Ts3Q7yKnRmbBL-42" value="" style="endArrow=none;html=1;rounded=0;entryX=0;entryY=0;entryDx=0;entryDy=0;exitX=1;exitY=1;exitDx=0;exitDy=0;strokeColor=#908E8E;" parent="1" source="Fhp9Y67Ts3Q7yKnRmbBL-13" target="Fhp9Y67Ts3Q7yKnRmbBL-5" edge="1">
          <mxGeometry width="50" height="50" relative="1" as="geometry">
            <mxPoint x="290" y="230" as="sourcePoint" />
            <mxPoint x="340" y="180" as="targetPoint" />
          </mxGeometry>
        </mxCell>
        <mxCell id="Fhp9Y67Ts3Q7yKnRmbBL-43" value="" style="endArrow=none;html=1;rounded=0;exitX=0.871;exitY=0.192;exitDx=0;exitDy=0;exitPerimeter=0;strokeColor=#908E8E;" parent="1" source="Fhp9Y67Ts3Q7yKnRmbBL-5" target="Fhp9Y67Ts3Q7yKnRmbBL-12" edge="1">
          <mxGeometry width="50" height="50" relative="1" as="geometry">
            <mxPoint x="540" y="290" as="sourcePoint" />
            <mxPoint x="590" y="240" as="targetPoint" />
          </mxGeometry>
        </mxCell>
        <mxCell id="Fhp9Y67Ts3Q7yKnRmbBL-44" value="" style="endArrow=none;html=1;rounded=0;exitX=0.792;exitY=0.113;exitDx=0;exitDy=0;exitPerimeter=0;entryX=0.163;entryY=0.904;entryDx=0;entryDy=0;entryPerimeter=0;strokeColor=#908E8E;" parent="1" source="Fhp9Y67Ts3Q7yKnRmbBL-15" target="Fhp9Y67Ts3Q7yKnRmbBL-5" edge="1">
          <mxGeometry width="50" height="50" relative="1" as="geometry">
            <mxPoint x="440" y="390" as="sourcePoint" />
            <mxPoint x="490" y="340" as="targetPoint" />
          </mxGeometry>
        </mxCell>
        <mxCell id="Fhp9Y67Ts3Q7yKnRmbBL-45" value="" style="endArrow=none;html=1;rounded=0;entryX=0.892;entryY=0.788;entryDx=0;entryDy=0;entryPerimeter=0;exitX=0.262;exitY=0.065;exitDx=0;exitDy=0;exitPerimeter=0;strokeColor=#908E8E;" parent="1" source="Fhp9Y67Ts3Q7yKnRmbBL-14" target="Fhp9Y67Ts3Q7yKnRmbBL-5" edge="1">
          <mxGeometry width="50" height="50" relative="1" as="geometry">
            <mxPoint x="660" y="460" as="sourcePoint" />
            <mxPoint x="710" y="410" as="targetPoint" />
          </mxGeometry>
        </mxCell>
        <mxCell id="YnyWgEIwqfwLFAFaO9jZ-43" value="" style="ellipse;whiteSpace=wrap;html=1;aspect=fixed;fillColor=#dae8fc;strokeColor=#6c8ebf;" parent="1" vertex="1">
          <mxGeometry x="80" y="660" width="80" height="80" as="geometry" />
        </mxCell>
        <mxCell id="YnyWgEIwqfwLFAFaO9jZ-44" value="" style="html=1;outlineConnect=0;whiteSpace=wrap;fillColor=#99ffff;shape=mxgraph.archimate3.component;strokeWidth=2;" parent="1" vertex="1">
          <mxGeometry x="96" y="680" width="48" height="40" as="geometry" />
        </mxCell>
        <mxCell id="YnyWgEIwqfwLFAFaO9jZ-45" value="" style="ellipse;whiteSpace=wrap;html=1;aspect=fixed;fillColor=#dae8fc;strokeColor=#6c8ebf;" parent="1" vertex="1">
          <mxGeometry x="227" y="660" width="80" height="80" as="geometry" />
        </mxCell>
        <mxCell id="YnyWgEIwqfwLFAFaO9jZ-46" value="" style="html=1;outlineConnect=0;whiteSpace=wrap;fillColor=#99ffff;shape=mxgraph.archimate3.function;strokeWidth=2;" parent="1" vertex="1">
          <mxGeometry x="237" y="680" width="60" height="40" as="geometry" />
        </mxCell>
        <mxCell id="YnyWgEIwqfwLFAFaO9jZ-49" value="" style="edgeStyle=elbowEdgeStyle;html=1;endArrow=block;elbow=vertical;endFill=0;dashed=1;rounded=0;entryX=-0.014;entryY=0.506;entryDx=0;entryDy=0;entryPerimeter=0;" parent="1" target="YnyWgEIwqfwLFAFaO9jZ-45" edge="1">
          <mxGeometry width="160" relative="1" as="geometry">
            <mxPoint x="160" y="700" as="sourcePoint" />
            <mxPoint x="220" y="700" as="targetPoint" />
          </mxGeometry>
        </mxCell>
        <mxCell id="YnyWgEIwqfwLFAFaO9jZ-51" value="&lt;div&gt;&lt;b&gt;Application Functionality&lt;/b&gt;&lt;/div&gt;&lt;div&gt;The functionality objects are nested in the Application Component&lt;/div&gt;&lt;div&gt;&amp;nbsp;object using the Realises relationship&lt;/div&gt;" style="text;html=1;align=left;verticalAlign=middle;resizable=0;points=[];autosize=1;strokeColor=none;fillColor=none;" parent="1" vertex="1">
          <mxGeometry x="5" y="600" width="370" height="60" as="geometry" />
        </mxCell>
        <mxCell id="YnyWgEIwqfwLFAFaO9jZ-58" value="" style="ellipse;whiteSpace=wrap;html=1;aspect=fixed;fillColor=#dae8fc;strokeColor=#6c8ebf;" parent="1" vertex="1">
          <mxGeometry x="225.5" y="810" width="80" height="80" as="geometry" />
        </mxCell>
        <mxCell id="YnyWgEIwqfwLFAFaO9jZ-59" value="" style="html=1;outlineConnect=0;whiteSpace=wrap;fillColor=#99ffff;shape=mxgraph.archimate3.component;strokeWidth=2;" parent="1" vertex="1">
          <mxGeometry x="241.5" y="830" width="48" height="40" as="geometry" />
        </mxCell>
        <mxCell id="YnyWgEIwqfwLFAFaO9jZ-60" value="" style="ellipse;whiteSpace=wrap;html=1;aspect=fixed;fillColor=#dae8fc;strokeColor=#6c8ebf;" parent="1" vertex="1">
          <mxGeometry x="78.5" y="810" width="80" height="80" as="geometry" />
        </mxCell>
        <mxCell id="YnyWgEIwqfwLFAFaO9jZ-61" value="&lt;table cellpadding=&quot;0&quot; cellspacing=&quot;0&quot; style=&quot;font-size:1em;width:100%;height:100%;&quot;&gt;&lt;tr style=&quot;height:20px;&quot;&gt;&lt;td align=&quot;center&quot;&gt;&lt;/td&gt;&lt;/tr&gt;&lt;tr&gt;&lt;td align=&quot;left&quot; valign=&quot;top&quot; style=&quot;padding:4px;&quot;&gt;&lt;/td&gt;&lt;/tr&gt;&lt;/table&gt;" style="html=1;outlineConnect=0;whiteSpace=wrap;fillColor=#99ffff;shape=mxgraph.archimate3.businessObject;overflow=fill;strokeWidth=2;" parent="1" vertex="1">
          <mxGeometry x="88.5" y="828" width="60" height="40" as="geometry" />
        </mxCell>
        <mxCell id="YnyWgEIwqfwLFAFaO9jZ-62" value="" style="edgeStyle=elbowEdgeStyle;html=1;endArrow=open;elbow=vertical;endFill=0;dashed=1;dashPattern=1 4;rounded=0;" parent="1" target="YnyWgEIwqfwLFAFaO9jZ-58" edge="1">
          <mxGeometry width="160" relative="1" as="geometry">
            <mxPoint x="158.5" y="850" as="sourcePoint" />
            <mxPoint x="228.5" y="850" as="targetPoint" />
          </mxGeometry>
        </mxCell>
        <mxCell id="YnyWgEIwqfwLFAFaO9jZ-63" value="Accesses" style="text;html=1;align=center;verticalAlign=middle;resizable=0;points=[];autosize=1;strokeColor=none;fillColor=none;" parent="1" vertex="1">
          <mxGeometry x="155.5" y="828" width="70" height="30" as="geometry" />
        </mxCell>
        <mxCell id="YnyWgEIwqfwLFAFaO9jZ-64" value="Realises" style="text;html=1;align=center;verticalAlign=middle;resizable=0;points=[];autosize=1;strokeColor=none;fillColor=none;" parent="1" vertex="1">
          <mxGeometry x="157" y="677" width="70" height="30" as="geometry" />
        </mxCell>
        <mxCell id="YnyWgEIwqfwLFAFaO9jZ-65" value="&lt;div&gt;&lt;b&gt;Application Data&lt;/b&gt;&lt;/div&gt;&lt;div&gt;The Data objects are nested in the Application Component Object&lt;/div&gt;&lt;div&gt;&amp;nbsp;using the Access Relationship&lt;/div&gt;" style="text;html=1;align=left;verticalAlign=middle;resizable=0;points=[];autosize=1;strokeColor=none;fillColor=none;" parent="1" vertex="1">
          <mxGeometry x="10" y="750" width="370" height="60" as="geometry" />
        </mxCell>
        <mxCell id="YnyWgEIwqfwLFAFaO9jZ-66" value="" style="ellipse;whiteSpace=wrap;html=1;aspect=fixed;fillColor=#dae8fc;strokeColor=#6c8ebf;" parent="1" vertex="1">
          <mxGeometry x="560" y="689" width="80" height="80" as="geometry" />
        </mxCell>
        <mxCell id="YnyWgEIwqfwLFAFaO9jZ-67" value="" style="html=1;outlineConnect=0;whiteSpace=wrap;fillColor=#99ffff;shape=mxgraph.archimate3.component;strokeWidth=2;" parent="1" vertex="1">
          <mxGeometry x="576" y="709" width="48" height="40" as="geometry" />
        </mxCell>
        <mxCell id="YnyWgEIwqfwLFAFaO9jZ-68" value="" style="ellipse;whiteSpace=wrap;html=1;aspect=fixed;fillColor=#dae8fc;strokeColor=#6c8ebf;" parent="1" vertex="1">
          <mxGeometry x="421" y="690.5" width="80" height="80" as="geometry" />
        </mxCell>
        <mxCell id="YnyWgEIwqfwLFAFaO9jZ-69" value="" style="html=1;outlineConnect=0;whiteSpace=wrap;fillColor=#99ffff;shape=mxgraph.archimate3.interface;strokeWidth=2;" parent="1" vertex="1">
          <mxGeometry x="421" y="710.5" width="70" height="35" as="geometry" />
        </mxCell>
        <mxCell id="YnyWgEIwqfwLFAFaO9jZ-70" value="&lt;div&gt;&lt;b&gt;Application Interfaces&lt;/b&gt;&lt;/div&gt;&lt;div&gt;The information flow can now be represented as Application Interfaces&lt;/div&gt;&lt;div&gt;Typically we can use the flow or trigger relationships.&lt;/div&gt;" style="text;html=1;align=left;verticalAlign=middle;resizable=0;points=[];autosize=1;strokeColor=none;fillColor=none;" parent="1" vertex="1">
          <mxGeometry x="420" y="623" width="400" height="60" as="geometry" />
        </mxCell>
        <mxCell id="YnyWgEIwqfwLFAFaO9jZ-71" value="" style="edgeStyle=elbowEdgeStyle;html=1;endArrow=block;dashed=1;elbow=vertical;endFill=1;dashPattern=6 4;rounded=0;entryX=-0.001;entryY=0.492;entryDx=0;entryDy=0;entryPerimeter=0;" parent="1" target="YnyWgEIwqfwLFAFaO9jZ-66" edge="1">
          <mxGeometry width="160" relative="1" as="geometry">
            <mxPoint x="501" y="728" as="sourcePoint" />
            <mxPoint x="611" y="728" as="targetPoint" />
          </mxGeometry>
        </mxCell>
        <mxCell id="YnyWgEIwqfwLFAFaO9jZ-72" value="Flow" style="text;html=1;align=center;verticalAlign=middle;resizable=0;points=[];autosize=1;strokeColor=none;fillColor=none;" parent="1" vertex="1">
          <mxGeometry x="495" y="703" width="50" height="30" as="geometry" />
        </mxCell>
        <mxCell id="YnyWgEIwqfwLFAFaO9jZ-73" value="" style="ellipse;whiteSpace=wrap;html=1;aspect=fixed;fillColor=#dae8fc;strokeColor=#6c8ebf;" parent="1" vertex="1">
          <mxGeometry x="416" y="850" width="80" height="80" as="geometry" />
        </mxCell>
        <mxCell id="YnyWgEIwqfwLFAFaO9jZ-74" value="" style="html=1;outlineConnect=0;whiteSpace=wrap;fillColor=#99ffff;shape=mxgraph.archimate3.component;strokeWidth=2;" parent="1" vertex="1">
          <mxGeometry x="432" y="870" width="48" height="40" as="geometry" />
        </mxCell>
        <mxCell id="YnyWgEIwqfwLFAFaO9jZ-75" value="" style="ellipse;whiteSpace=wrap;html=1;aspect=fixed;fillColor=#d5e8d4;strokeColor=#82b366;" parent="1" vertex="1">
          <mxGeometry x="559" y="850" width="80" height="80" as="geometry" />
        </mxCell>
        <mxCell id="YnyWgEIwqfwLFAFaO9jZ-76" value="" style="html=1;outlineConnect=0;whiteSpace=wrap;fillColor=#AFFFAF;shape=mxgraph.archimate3.device;strokeWidth=2;" parent="1" vertex="1">
          <mxGeometry x="564" y="875" width="70" height="35" as="geometry" />
        </mxCell>
        <mxCell id="YnyWgEIwqfwLFAFaO9jZ-77" value="&lt;div&gt;&lt;b&gt;Application Devices&lt;/b&gt;&lt;/div&gt;&lt;div&gt;The application is predominately accessed through a desktop device.&lt;/div&gt;" style="text;html=1;align=left;verticalAlign=middle;resizable=0;points=[];autosize=1;strokeColor=none;fillColor=none;" parent="1" vertex="1">
          <mxGeometry x="404" y="800" width="390" height="40" as="geometry" />
        </mxCell>
        <mxCell id="YnyWgEIwqfwLFAFaO9jZ-79" value="" style="edgeStyle=elbowEdgeStyle;html=1;endArrow=none;elbow=vertical;rounded=0;entryX=0;entryY=0.5;entryDx=0;entryDy=0;" parent="1" target="YnyWgEIwqfwLFAFaO9jZ-75" edge="1">
          <mxGeometry width="160" relative="1" as="geometry">
            <mxPoint x="496" y="889.6" as="sourcePoint" />
            <mxPoint x="540" y="890" as="targetPoint" />
          </mxGeometry>
        </mxCell>
        <mxCell id="YnyWgEIwqfwLFAFaO9jZ-80" value="Associated" style="text;html=1;align=center;verticalAlign=middle;resizable=0;points=[];autosize=1;strokeColor=none;fillColor=none;" parent="1" vertex="1">
          <mxGeometry x="487" y="869" width="80" height="30" as="geometry" />
        </mxCell>
        <mxCell id="YnyWgEIwqfwLFAFaO9jZ-81" value="" style="ellipse;whiteSpace=wrap;html=1;aspect=fixed;fillColor=#dae8fc;strokeColor=#6c8ebf;" parent="1" vertex="1">
          <mxGeometry x="78.5" y="1020" width="80" height="80" as="geometry" />
        </mxCell>
        <mxCell id="YnyWgEIwqfwLFAFaO9jZ-82" value="" style="html=1;outlineConnect=0;whiteSpace=wrap;fillColor=#99ffff;shape=mxgraph.archimate3.component;strokeWidth=2;" parent="1" vertex="1">
          <mxGeometry x="94.5" y="1040" width="48" height="40" as="geometry" />
        </mxCell>
        <mxCell id="YnyWgEIwqfwLFAFaO9jZ-83" value="" style="ellipse;whiteSpace=wrap;html=1;aspect=fixed;fillColor=#fff2cc;strokeColor=#d6b656;" parent="1" vertex="1">
          <mxGeometry x="225.5" y="1020" width="80" height="80" as="geometry" />
        </mxCell>
        <mxCell id="YnyWgEIwqfwLFAFaO9jZ-84" value="" style="html=1;outlineConnect=0;whiteSpace=wrap;fillColor=#ffff99;verticalLabelPosition=bottom;verticalAlign=top;align=center;shape=mxgraph.archimate3.actor;strokeWidth=2;" parent="1" vertex="1">
          <mxGeometry x="254.5" y="1040" width="26.5" height="50" as="geometry" />
        </mxCell>
        <mxCell id="YnyWgEIwqfwLFAFaO9jZ-85" value="&lt;div&gt;&lt;b style=&quot;background-color: transparent; color: light-dark(rgb(0, 0, 0), rgb(255, 255, 255));&quot;&gt;Application Users&lt;/b&gt;&lt;/div&gt;&lt;div&gt;&lt;div&gt;The application serves the Finance and Stock Control business (Actors).&lt;/div&gt;&lt;/div&gt;" style="text;html=1;align=left;verticalAlign=middle;resizable=0;points=[];autosize=1;strokeColor=none;fillColor=none;" parent="1" vertex="1">
          <mxGeometry x="10" y="940" width="410" height="40" as="geometry" />
        </mxCell>
        <mxCell id="YnyWgEIwqfwLFAFaO9jZ-86" value="" style="edgeStyle=elbowEdgeStyle;html=1;endArrow=open;elbow=vertical;endFill=1;rounded=0;entryX=0;entryY=0.5;entryDx=0;entryDy=0;" parent="1" target="YnyWgEIwqfwLFAFaO9jZ-83" edge="1">
          <mxGeometry width="160" relative="1" as="geometry">
            <mxPoint x="160" y="1060" as="sourcePoint" />
            <mxPoint x="220" y="1060" as="targetPoint" />
          </mxGeometry>
        </mxCell>
        <mxCell id="YnyWgEIwqfwLFAFaO9jZ-87" value="Serves" style="text;html=1;align=center;verticalAlign=middle;resizable=0;points=[];autosize=1;strokeColor=none;fillColor=none;" parent="1" vertex="1">
          <mxGeometry x="158.5" y="1038" width="60" height="30" as="geometry" />
        </mxCell>
        <mxCell id="YnyWgEIwqfwLFAFaO9jZ-88" value="" style="ellipse;whiteSpace=wrap;html=1;aspect=fixed;fillColor=#dae8fc;strokeColor=#6c8ebf;" parent="1" vertex="1">
          <mxGeometry x="415" y="1040" width="80" height="80" as="geometry" />
        </mxCell>
        <mxCell id="YnyWgEIwqfwLFAFaO9jZ-89" value="" style="html=1;outlineConnect=0;whiteSpace=wrap;fillColor=#99ffff;shape=mxgraph.archimate3.component;strokeWidth=2;" parent="1" vertex="1">
          <mxGeometry x="431" y="1060" width="48" height="40" as="geometry" />
        </mxCell>
        <mxCell id="YnyWgEIwqfwLFAFaO9jZ-90" value="" style="ellipse;whiteSpace=wrap;html=1;aspect=fixed;fillColor=#d5e8d4;strokeColor=#82b366;" parent="1" vertex="1">
          <mxGeometry x="567" y="1040" width="80" height="80" as="geometry" />
        </mxCell>
        <mxCell id="YnyWgEIwqfwLFAFaO9jZ-91" value="" style="html=1;outlineConnect=0;whiteSpace=wrap;fillColor=#AFFFAF;shape=mxgraph.archimate3.node;strokeWidth=2;" parent="1" vertex="1">
          <mxGeometry x="577" y="1060" width="50" height="40" as="geometry" />
        </mxCell>
        <mxCell id="YnyWgEIwqfwLFAFaO9jZ-92" value="&lt;div&gt;&lt;b&gt;Application Servers&lt;/b&gt;&lt;/div&gt;&lt;div&gt;The application and Database Servers are composite(nested relationships)&amp;nbsp;&lt;/div&gt;&lt;div&gt;Nodes of the ERP Server and they serve the ERP System.&lt;/div&gt;" style="text;html=1;align=left;verticalAlign=middle;resizable=0;points=[];autosize=1;strokeColor=none;fillColor=none;" parent="1" vertex="1">
          <mxGeometry x="410" y="930" width="420" height="60" as="geometry" />
        </mxCell>
        <mxCell id="YnyWgEIwqfwLFAFaO9jZ-93" value="" style="edgeStyle=elbowEdgeStyle;html=1;endArrow=open;elbow=vertical;endFill=1;rounded=0;" parent="1" target="YnyWgEIwqfwLFAFaO9jZ-88" edge="1">
          <mxGeometry width="160" relative="1" as="geometry">
            <mxPoint x="570" y="1080" as="sourcePoint" />
            <mxPoint x="730" y="1080" as="targetPoint" />
          </mxGeometry>
        </mxCell>
        <mxCell id="YnyWgEIwqfwLFAFaO9jZ-94" value="Serves" style="text;html=1;align=center;verticalAlign=middle;resizable=0;points=[];autosize=1;strokeColor=none;fillColor=none;" parent="1" vertex="1">
          <mxGeometry x="497" y="1050" width="60" height="30" as="geometry" />
        </mxCell>
        <mxCell id="YnyWgEIwqfwLFAFaO9jZ-95" value="" style="ellipse;whiteSpace=wrap;html=1;aspect=fixed;fillColor=#dae8fc;strokeColor=#6c8ebf;" parent="1" vertex="1">
          <mxGeometry x="57" y="1325" width="80" height="80" as="geometry" />
        </mxCell>
        <mxCell id="YnyWgEIwqfwLFAFaO9jZ-96" value="" style="html=1;outlineConnect=0;whiteSpace=wrap;fillColor=#99ffff;shape=mxgraph.archimate3.component;strokeWidth=2;" parent="1" vertex="1">
          <mxGeometry x="73" y="1345" width="48" height="40" as="geometry" />
        </mxCell>
        <mxCell id="YnyWgEIwqfwLFAFaO9jZ-97" value="" style="ellipse;whiteSpace=wrap;html=1;aspect=fixed;fillColor=#e1d5e7;strokeColor=#9673a6;" parent="1" vertex="1">
          <mxGeometry x="203" y="1324" width="80" height="80" as="geometry" />
        </mxCell>
        <mxCell id="YnyWgEIwqfwLFAFaO9jZ-99" value="" style="html=1;outlineConnect=0;whiteSpace=wrap;fillColor=#CCCCFF;shape=mxgraph.archimate3.constraint;strokeWidth=2;" parent="1" vertex="1">
          <mxGeometry x="208" y="1344" width="70" height="35" as="geometry" />
        </mxCell>
        <mxCell id="YnyWgEIwqfwLFAFaO9jZ-100" value="" style="ellipse;whiteSpace=wrap;html=1;aspect=fixed;fillColor=#d5e8d4;strokeColor=#82b366;" parent="1" vertex="1">
          <mxGeometry x="209.5" y="1200" width="80" height="80" as="geometry" />
        </mxCell>
        <mxCell id="YnyWgEIwqfwLFAFaO9jZ-101" value="" style="html=1;outlineConnect=0;whiteSpace=wrap;fillColor=#AFFFAF;shape=mxgraph.archimate3.node;strokeWidth=2;" parent="1" vertex="1">
          <mxGeometry x="219.5" y="1220" width="50" height="40" as="geometry" />
        </mxCell>
        <mxCell id="YnyWgEIwqfwLFAFaO9jZ-102" value="" style="edgeStyle=elbowEdgeStyle;html=1;endArrow=none;elbow=vertical;rounded=0;entryX=-0.002;entryY=0.509;entryDx=0;entryDy=0;entryPerimeter=0;" parent="1" target="YnyWgEIwqfwLFAFaO9jZ-97" edge="1">
          <mxGeometry width="160" relative="1" as="geometry">
            <mxPoint x="137" y="1364.83" as="sourcePoint" />
            <mxPoint x="198.5" y="1365" as="targetPoint" />
          </mxGeometry>
        </mxCell>
        <mxCell id="YnyWgEIwqfwLFAFaO9jZ-103" value="" style="edgeStyle=elbowEdgeStyle;html=1;endArrow=none;elbow=vertical;rounded=0;entryX=0.483;entryY=1.033;entryDx=0;entryDy=0;entryPerimeter=0;" parent="1" target="YnyWgEIwqfwLFAFaO9jZ-100" edge="1">
          <mxGeometry width="160" relative="1" as="geometry">
            <mxPoint x="248.5" y="1325" as="sourcePoint" />
            <mxPoint x="408.5" y="1325" as="targetPoint" />
          </mxGeometry>
        </mxCell>
        <mxCell id="YnyWgEIwqfwLFAFaO9jZ-104" value="&lt;div&gt;&lt;span style=&quot;background-color: transparent; color: light-dark(rgb(0, 0, 0), rgb(255, 255, 255));&quot;&gt;&lt;b&gt;Application Constraints&lt;/b&gt;&lt;/span&gt;&lt;/div&gt;&lt;div&gt;&lt;div&gt;The constraints object could be used to denote the high-level security controls&lt;/div&gt;&lt;/div&gt;" style="text;html=1;align=left;verticalAlign=middle;resizable=0;points=[];autosize=1;strokeColor=none;fillColor=none;" parent="1" vertex="1">
          <mxGeometry x="15" y="1160" width="440" height="40" as="geometry" />
        </mxCell>
        <mxCell id="YnyWgEIwqfwLFAFaO9jZ-105" value="Associated" style="text;html=1;align=center;verticalAlign=middle;resizable=0;points=[];autosize=1;strokeColor=none;fillColor=none;" parent="1" vertex="1">
          <mxGeometry x="134" y="1325" width="80" height="30" as="geometry" />
        </mxCell>
      </root>
    </mxGraphModel>
  </diagram>
  <diagram id="Jfck77cgRVGoYZDBj3mR" name="Technology Layer">
    <mxGraphModel dx="1195" dy="628" grid="1" gridSize="10" guides="1" tooltips="1" connect="1" arrows="1" fold="1" page="1" pageScale="1" pageWidth="850" pageHeight="1100" math="0" shadow="0">
      <root>
        <mxCell id="0" />
        <mxCell id="1" parent="0" />
        <mxCell id="p8zLGUAoAQKjBCoc4I2x-1" value="" style="ellipse;whiteSpace=wrap;html=1;aspect=fixed;strokeColor=#908E8E;" vertex="1" parent="1">
          <mxGeometry x="235" y="50" width="580" height="580" as="geometry" />
        </mxCell>
        <mxCell id="7vv-dVCyCQ-gJq9xenhq-5" value="" style="endArrow=none;html=1;rounded=0;entryX=1;entryY=0.5;entryDx=0;entryDy=0;strokeColor=#908E8E;" edge="1" parent="1" source="ZR4C9pEXmQT03OREp36A-13" target="p8zLGUAoAQKjBCoc4I2x-1">
          <mxGeometry width="50" height="50" relative="1" as="geometry">
            <mxPoint x="235" y="340" as="sourcePoint" />
            <mxPoint x="285" y="290" as="targetPoint" />
          </mxGeometry>
        </mxCell>
        <mxCell id="7vv-dVCyCQ-gJq9xenhq-1" value="Business" style="rounded=1;whiteSpace=wrap;html=1;fillColor=#fff2cc;strokeColor=#d6b656;" vertex="1" parent="1">
          <mxGeometry x="10" y="20" width="120" height="40" as="geometry" />
        </mxCell>
        <mxCell id="7vv-dVCyCQ-gJq9xenhq-2" value="Application" style="rounded=1;whiteSpace=wrap;html=1;fillColor=#dae8fc;strokeColor=#6c8ebf;" vertex="1" parent="1">
          <mxGeometry x="10" y="70" width="120" height="40" as="geometry" />
        </mxCell>
        <mxCell id="7vv-dVCyCQ-gJq9xenhq-3" value="Technology" style="rounded=1;whiteSpace=wrap;html=1;fillColor=#d5e8d4;strokeColor=#82b366;" vertex="1" parent="1">
          <mxGeometry x="10" y="120" width="120" height="40" as="geometry" />
        </mxCell>
        <mxCell id="7vv-dVCyCQ-gJq9xenhq-4" value="Motivation" style="rounded=1;whiteSpace=wrap;html=1;horizontal=0;fillColor=#e1d5e7;strokeColor=#9673a6;" vertex="1" parent="1">
          <mxGeometry x="140" y="20" width="50" height="140" as="geometry" />
        </mxCell>
        <mxCell id="7vv-dVCyCQ-gJq9xenhq-6" value="" style="endArrow=none;html=1;rounded=0;entryX=0.5;entryY=0;entryDx=0;entryDy=0;exitX=0.5;exitY=1;exitDx=0;exitDy=0;strokeColor=#908E8E;" edge="1" parent="1" source="p8zLGUAoAQKjBCoc4I2x-1" target="p8zLGUAoAQKjBCoc4I2x-1">
          <mxGeometry width="50" height="50" relative="1" as="geometry">
            <mxPoint x="405" y="440" as="sourcePoint" />
            <mxPoint x="455" y="390" as="targetPoint" />
          </mxGeometry>
        </mxCell>
        <mxCell id="7vv-dVCyCQ-gJq9xenhq-7" value="" style="endArrow=none;html=1;rounded=0;entryX=1;entryY=1;entryDx=0;entryDy=0;strokeColor=#908E8E;" edge="1" parent="1" target="p8zLGUAoAQKjBCoc4I2x-1">
          <mxGeometry width="50" height="50" relative="1" as="geometry">
            <mxPoint x="320" y="135" as="sourcePoint" />
            <mxPoint x="370" y="85" as="targetPoint" />
          </mxGeometry>
        </mxCell>
        <mxCell id="7vv-dVCyCQ-gJq9xenhq-8" value="" style="endArrow=none;html=1;rounded=0;entryX=1;entryY=0;entryDx=0;entryDy=0;strokeColor=#908E8E;" edge="1" parent="1" target="p8zLGUAoAQKjBCoc4I2x-1">
          <mxGeometry width="50" height="50" relative="1" as="geometry">
            <mxPoint x="320" y="545" as="sourcePoint" />
            <mxPoint x="370" y="495" as="targetPoint" />
          </mxGeometry>
        </mxCell>
        <mxCell id="ZR4C9pEXmQT03OREp36A-2" value="" style="ellipse;whiteSpace=wrap;html=1;aspect=fixed;fillColor=#d5e8d4;strokeColor=#82b366;" vertex="1" parent="1">
          <mxGeometry x="285" y="100" width="80" height="80" as="geometry" />
        </mxCell>
        <mxCell id="ZR4C9pEXmQT03OREp36A-3" value="" style="ellipse;whiteSpace=wrap;html=1;aspect=fixed;fillColor=#d5e8d4;strokeColor=#82b366;" vertex="1" parent="1">
          <mxGeometry x="485" y="20" width="80" height="80" as="geometry" />
        </mxCell>
        <mxCell id="ZR4C9pEXmQT03OREp36A-4" value="" style="ellipse;whiteSpace=wrap;html=1;aspect=fixed;fillColor=#d5e8d4;strokeColor=#82b366;" vertex="1" parent="1">
          <mxGeometry x="685" y="100" width="80" height="80" as="geometry" />
        </mxCell>
        <mxCell id="ZR4C9pEXmQT03OREp36A-5" value="" style="ellipse;whiteSpace=wrap;html=1;aspect=fixed;fillColor=#d5e8d4;strokeColor=#82b366;" vertex="1" parent="1">
          <mxGeometry x="765" y="300" width="80" height="80" as="geometry" />
        </mxCell>
        <mxCell id="ZR4C9pEXmQT03OREp36A-6" value="" style="ellipse;whiteSpace=wrap;html=1;aspect=fixed;fillColor=#d5e8d4;strokeColor=#82b366;" vertex="1" parent="1">
          <mxGeometry x="678" y="496" width="80" height="80" as="geometry" />
        </mxCell>
        <mxCell id="ZR4C9pEXmQT03OREp36A-7" value="" style="ellipse;whiteSpace=wrap;html=1;aspect=fixed;fillColor=#d5e8d4;strokeColor=#82b366;" vertex="1" parent="1">
          <mxGeometry x="285" y="500" width="80" height="80" as="geometry" />
        </mxCell>
        <mxCell id="ZR4C9pEXmQT03OREp36A-8" value="" style="ellipse;whiteSpace=wrap;html=1;aspect=fixed;fillColor=#d5e8d4;strokeColor=#82b366;" vertex="1" parent="1">
          <mxGeometry x="485" y="580" width="80" height="80" as="geometry" />
        </mxCell>
        <mxCell id="ZR4C9pEXmQT03OREp36A-12" value="" style="endArrow=none;html=1;rounded=0;entryX=1;entryY=0.5;entryDx=0;entryDy=0;strokeColor=#908E8E;" edge="1" parent="1" target="ZR4C9pEXmQT03OREp36A-13">
          <mxGeometry width="50" height="50" relative="1" as="geometry">
            <mxPoint x="235" y="340" as="sourcePoint" />
            <mxPoint x="815" y="340" as="targetPoint" />
          </mxGeometry>
        </mxCell>
        <mxCell id="ZR4C9pEXmQT03OREp36A-13" value="" style="ellipse;whiteSpace=wrap;html=1;aspect=fixed;strokeColor=#82b366;fillColor=#d5e8d4;" vertex="1" parent="1">
          <mxGeometry x="485" y="300" width="80" height="80" as="geometry" />
        </mxCell>
        <mxCell id="ZR4C9pEXmQT03OREp36A-11" value="" style="html=1;outlineConnect=0;whiteSpace=wrap;fillColor=#AFFFAF;shape=mxgraph.archimate3.node;strokeWidth=2;" vertex="1" parent="1">
          <mxGeometry x="497.5" y="320" width="55" height="40" as="geometry" />
        </mxCell>
        <mxCell id="ZR4C9pEXmQT03OREp36A-14" value="" style="html=1;outlineConnect=0;whiteSpace=wrap;fillColor=#AFFFAF;shape=mxgraph.archimate3.service;strokeWidth=2;" vertex="1" parent="1">
          <mxGeometry x="497" y="603" width="60" height="27" as="geometry" />
        </mxCell>
        <mxCell id="ZR4C9pEXmQT03OREp36A-15" value="" style="html=1;outlineConnect=0;whiteSpace=wrap;fillColor=default;shape=mxgraph.archimate3.network;strokeWidth=2;" vertex="1" parent="1">
          <mxGeometry x="293" y="110" width="65" height="50" as="geometry" />
        </mxCell>
        <mxCell id="ZR4C9pEXmQT03OREp36A-16" value="" style="html=1;outlineConnect=0;whiteSpace=wrap;fillColor=#AFFFAF;shape=mxgraph.archimate3.device;strokeWidth=2;" vertex="1" parent="1">
          <mxGeometry x="495" y="40" width="60" height="35" as="geometry" />
        </mxCell>
        <mxCell id="ZR4C9pEXmQT03OREp36A-18" value="" style="html=1;outlineConnect=0;whiteSpace=wrap;fillColor=#AFFFAF;shape=note;size=14;strokeWidth=2;" vertex="1" parent="1">
          <mxGeometry x="707.5" y="113.75" width="35" height="42.5" as="geometry" />
        </mxCell>
        <mxCell id="ZR4C9pEXmQT03OREp36A-19" value="" style="html=1;outlineConnect=0;whiteSpace=wrap;fillColor=#AFFFAF;shape=mxgraph.archimate3.sysSw;strokeWidth=2;" vertex="1" parent="1">
          <mxGeometry x="785" y="320" width="40" height="40" as="geometry" />
        </mxCell>
        <mxCell id="ZR4C9pEXmQT03OREp36A-20" value="" style="html=1;outlineConnect=0;whiteSpace=wrap;fillColor=#AFFFAF;shape=mxgraph.archimate3.path;strokeWidth=6;" vertex="1" parent="1">
          <mxGeometry x="692.5" y="520" width="50" height="30" as="geometry" />
        </mxCell>
        <mxCell id="ZR4C9pEXmQT03OREp36A-1" value="" style="ellipse;whiteSpace=wrap;html=1;aspect=fixed;fillColor=#dae8fc;strokeColor=#6c8ebf;" vertex="1" parent="1">
          <mxGeometry x="195" y="300" width="80" height="80" as="geometry" />
        </mxCell>
        <mxCell id="ZR4C9pEXmQT03OREp36A-9" value="" style="html=1;outlineConnect=0;whiteSpace=wrap;fillColor=#99ffff;shape=mxgraph.archimate3.component;strokeWidth=2;" vertex="1" parent="1">
          <mxGeometry x="211" y="320" width="48" height="40" as="geometry" />
        </mxCell>
        <mxCell id="ZR4C9pEXmQT03OREp36A-21" value="Application&amp;nbsp;&lt;div&gt;Component&lt;/div&gt;" style="text;html=1;align=center;verticalAlign=middle;resizable=0;points=[];autosize=1;strokeColor=none;fillColor=none;" vertex="1" parent="1">
          <mxGeometry x="140" y="370" width="90" height="40" as="geometry" />
        </mxCell>
        <mxCell id="ZR4C9pEXmQT03OREp36A-22" value="Node" style="text;html=1;align=center;verticalAlign=middle;resizable=0;points=[];autosize=1;strokeColor=none;fillColor=none;" vertex="1" parent="1">
          <mxGeometry x="447.5" y="350" width="50" height="30" as="geometry" />
        </mxCell>
        <mxCell id="ZR4C9pEXmQT03OREp36A-23" value="System&amp;nbsp;&lt;div&gt;Software&lt;/div&gt;" style="text;html=1;align=center;verticalAlign=middle;resizable=0;points=[];autosize=1;strokeColor=none;fillColor=none;" vertex="1" parent="1">
          <mxGeometry x="725" y="360" width="70" height="40" as="geometry" />
        </mxCell>
        <mxCell id="ZR4C9pEXmQT03OREp36A-24" value="Artifact" style="text;html=1;align=center;verticalAlign=middle;resizable=0;points=[];autosize=1;strokeColor=none;fillColor=none;" vertex="1" parent="1">
          <mxGeometry x="705" y="70" width="60" height="30" as="geometry" />
        </mxCell>
        <mxCell id="ZR4C9pEXmQT03OREp36A-26" value="Communication&amp;nbsp;&lt;div&gt;Network&lt;/div&gt;" style="text;html=1;align=center;verticalAlign=middle;resizable=0;points=[];autosize=1;strokeColor=none;fillColor=none;" vertex="1" parent="1">
          <mxGeometry x="240" y="65" width="110" height="40" as="geometry" />
        </mxCell>
        <mxCell id="ZR4C9pEXmQT03OREp36A-27" value="Device" style="text;html=1;align=center;verticalAlign=middle;resizable=0;points=[];autosize=1;strokeColor=none;fillColor=none;" vertex="1" parent="1">
          <mxGeometry x="435" y="10" width="60" height="30" as="geometry" />
        </mxCell>
        <mxCell id="ZR4C9pEXmQT03OREp36A-28" value="Technology&amp;nbsp;&lt;div&gt;Function&lt;/div&gt;" style="text;html=1;align=center;verticalAlign=middle;resizable=0;points=[];autosize=1;strokeColor=none;fillColor=none;" vertex="1" parent="1">
          <mxGeometry x="260" y="576" width="90" height="40" as="geometry" />
        </mxCell>
        <mxCell id="ZR4C9pEXmQT03OREp36A-29" value="Technology&amp;nbsp;&lt;div&gt;Service&lt;/div&gt;" style="text;html=1;align=center;verticalAlign=middle;resizable=0;points=[];autosize=1;strokeColor=none;fillColor=none;" vertex="1" parent="1">
          <mxGeometry x="545" y="620" width="90" height="40" as="geometry" />
        </mxCell>
        <mxCell id="ZR4C9pEXmQT03OREp36A-30" value="Path" style="text;html=1;align=center;verticalAlign=middle;resizable=0;points=[];autosize=1;strokeColor=none;fillColor=none;" vertex="1" parent="1">
          <mxGeometry x="700" y="580" width="50" height="30" as="geometry" />
        </mxCell>
        <mxCell id="ZR4C9pEXmQT03OREp36A-31" value="" style="ellipse;whiteSpace=wrap;html=1;aspect=fixed;strokeColor=#82b366;fillColor=#d5e8d4;" vertex="1" parent="1">
          <mxGeometry x="12" y="712" width="80" height="80" as="geometry" />
        </mxCell>
        <mxCell id="ZR4C9pEXmQT03OREp36A-32" value="" style="html=1;outlineConnect=0;whiteSpace=wrap;fillColor=#AFFFAF;shape=mxgraph.archimate3.node;strokeWidth=2;" vertex="1" parent="1">
          <mxGeometry x="24.5" y="732" width="55" height="40" as="geometry" />
        </mxCell>
        <mxCell id="ZR4C9pEXmQT03OREp36A-33" value="" style="ellipse;whiteSpace=wrap;html=1;aspect=fixed;fillColor=#dae8fc;strokeColor=#6c8ebf;" vertex="1" parent="1">
          <mxGeometry x="12" y="872" width="80" height="80" as="geometry" />
        </mxCell>
        <mxCell id="ZR4C9pEXmQT03OREp36A-34" value="" style="html=1;outlineConnect=0;whiteSpace=wrap;fillColor=#99ffff;shape=mxgraph.archimate3.component;strokeWidth=2;" vertex="1" parent="1">
          <mxGeometry x="28" y="892" width="48" height="40" as="geometry" />
        </mxCell>
        <mxCell id="ZR4C9pEXmQT03OREp36A-35" value="" style="ellipse;whiteSpace=wrap;html=1;aspect=fixed;strokeColor=#82b366;fillColor=#d5e8d4;" vertex="1" parent="1">
          <mxGeometry x="182.5" y="712" width="80" height="80" as="geometry" />
        </mxCell>
        <mxCell id="ZR4C9pEXmQT03OREp36A-36" value="" style="html=1;outlineConnect=0;whiteSpace=wrap;fillColor=#AFFFAF;shape=mxgraph.archimate3.node;strokeWidth=2;" vertex="1" parent="1">
          <mxGeometry x="195" y="732" width="55" height="40" as="geometry" />
        </mxCell>
        <mxCell id="ZR4C9pEXmQT03OREp36A-37" value="" style="edgeStyle=elbowEdgeStyle;html=1;endArrow=open;elbow=horizontal;endFill=1;rounded=0;entryX=0.375;entryY=0;entryDx=0;entryDy=0;entryPerimeter=0;strokeColor=#C4E0C2;" edge="1" parent="1">
          <mxGeometry width="160" relative="1" as="geometry">
            <mxPoint x="53" y="792" as="sourcePoint" />
            <mxPoint x="53" y="872" as="targetPoint" />
          </mxGeometry>
        </mxCell>
        <mxCell id="ZR4C9pEXmQT03OREp36A-39" value="Node" style="text;html=1;align=center;verticalAlign=middle;resizable=0;points=[];autosize=1;strokeColor=none;fillColor=none;" vertex="1" parent="1">
          <mxGeometry x="26" y="673" width="50" height="30" as="geometry" />
        </mxCell>
        <mxCell id="ZR4C9pEXmQT03OREp36A-40" value="" style="ellipse;whiteSpace=wrap;html=1;aspect=fixed;fillColor=#d5e8d4;strokeColor=#82b366;" vertex="1" parent="1">
          <mxGeometry x="465" y="713" width="80" height="80" as="geometry" />
        </mxCell>
        <mxCell id="ZR4C9pEXmQT03OREp36A-41" value="" style="ellipse;whiteSpace=wrap;html=1;aspect=fixed;strokeColor=#82b366;fillColor=#d5e8d4;" vertex="1" parent="1">
          <mxGeometry x="328" y="713" width="80" height="80" as="geometry" />
        </mxCell>
        <mxCell id="ZR4C9pEXmQT03OREp36A-42" value="" style="html=1;outlineConnect=0;whiteSpace=wrap;fillColor=#AFFFAF;shape=mxgraph.archimate3.node;strokeWidth=2;" vertex="1" parent="1">
          <mxGeometry x="340.5" y="733" width="55" height="40" as="geometry" />
        </mxCell>
        <mxCell id="ZR4C9pEXmQT03OREp36A-43" value="" style="html=1;outlineConnect=0;whiteSpace=wrap;fillColor=#AFFFAF;shape=mxgraph.archimate3.sysSw;strokeWidth=2;" vertex="1" parent="1">
          <mxGeometry x="485" y="733" width="40" height="40" as="geometry" />
        </mxCell>
        <mxCell id="ZR4C9pEXmQT03OREp36A-44" value="System Software" style="text;html=1;align=center;verticalAlign=middle;resizable=0;points=[];autosize=1;strokeColor=none;fillColor=none;" vertex="1" parent="1">
          <mxGeometry x="338" y="673" width="110" height="30" as="geometry" />
        </mxCell>
        <mxCell id="ZR4C9pEXmQT03OREp36A-45" value="" style="edgeStyle=elbowEdgeStyle;html=1;endArrow=open;elbow=vertical;endFill=1;rounded=0;entryX=1;entryY=0.5;entryDx=0;entryDy=0;" edge="1" parent="1" target="ZR4C9pEXmQT03OREp36A-41">
          <mxGeometry width="160" relative="1" as="geometry">
            <mxPoint x="465" y="753" as="sourcePoint" />
            <mxPoint x="625" y="753" as="targetPoint" />
          </mxGeometry>
        </mxCell>
        <mxCell id="ZR4C9pEXmQT03OREp36A-46" value="" style="ellipse;whiteSpace=wrap;html=1;aspect=fixed;fillColor=#d5e8d4;strokeColor=#82b366;" vertex="1" parent="1">
          <mxGeometry x="755.75" y="713" width="80" height="80" as="geometry" />
        </mxCell>
        <mxCell id="ZR4C9pEXmQT03OREp36A-47" value="" style="ellipse;whiteSpace=wrap;html=1;aspect=fixed;strokeColor=#82b366;fillColor=#d5e8d4;" vertex="1" parent="1">
          <mxGeometry x="618.25" y="713" width="80" height="80" as="geometry" />
        </mxCell>
        <mxCell id="ZR4C9pEXmQT03OREp36A-48" value="" style="html=1;outlineConnect=0;whiteSpace=wrap;fillColor=#AFFFAF;shape=mxgraph.archimate3.node;strokeWidth=2;" vertex="1" parent="1">
          <mxGeometry x="630.75" y="733" width="55" height="40" as="geometry" />
        </mxCell>
        <mxCell id="ZR4C9pEXmQT03OREp36A-49" value="" style="html=1;outlineConnect=0;whiteSpace=wrap;fillColor=#AFFFAF;shape=mxgraph.archimate3.service;strokeWidth=2;" vertex="1" parent="1">
          <mxGeometry x="767.75" y="736" width="60" height="27" as="geometry" />
        </mxCell>
        <mxCell id="ZR4C9pEXmQT03OREp36A-50" value="" style="edgeStyle=elbowEdgeStyle;html=1;endArrow=open;elbow=vertical;endFill=1;rounded=0;entryX=1;entryY=0.5;entryDx=0;entryDy=0;" edge="1" parent="1" target="ZR4C9pEXmQT03OREp36A-47">
          <mxGeometry width="160" relative="1" as="geometry">
            <mxPoint x="755.75" y="752.5" as="sourcePoint" />
            <mxPoint x="915.75" y="752.5" as="targetPoint" />
          </mxGeometry>
        </mxCell>
        <mxCell id="ZR4C9pEXmQT03OREp36A-51" value="Serves" style="text;html=1;align=center;verticalAlign=middle;resizable=0;points=[];autosize=1;strokeColor=none;fillColor=none;" vertex="1" parent="1">
          <mxGeometry x="20" y="811" width="60" height="30" as="geometry" />
        </mxCell>
        <mxCell id="ZR4C9pEXmQT03OREp36A-52" value="Serves" style="text;html=1;align=center;verticalAlign=middle;resizable=0;points=[];autosize=1;strokeColor=none;fillColor=none;" vertex="1" parent="1">
          <mxGeometry x="405" y="723" width="60" height="30" as="geometry" />
        </mxCell>
        <mxCell id="ZR4C9pEXmQT03OREp36A-53" value="Serves" style="text;html=1;align=center;verticalAlign=middle;resizable=0;points=[];autosize=1;strokeColor=none;fillColor=none;" vertex="1" parent="1">
          <mxGeometry x="695.75" y="723" width="60" height="30" as="geometry" />
        </mxCell>
        <mxCell id="ZR4C9pEXmQT03OREp36A-54" value="Composed" style="text;html=1;align=center;verticalAlign=middle;resizable=0;points=[];autosize=1;strokeColor=none;fillColor=none;" vertex="1" parent="1">
          <mxGeometry x="97" y="722" width="80" height="30" as="geometry" />
        </mxCell>
        <mxCell id="ZR4C9pEXmQT03OREp36A-55" value="Technology Service" style="text;html=1;align=center;verticalAlign=middle;resizable=0;points=[];autosize=1;strokeColor=none;fillColor=none;" vertex="1" parent="1">
          <mxGeometry x="619.5" y="673" width="130" height="30" as="geometry" />
        </mxCell>
        <mxCell id="ZR4C9pEXmQT03OREp36A-56" value="" style="ellipse;whiteSpace=wrap;html=1;aspect=fixed;fillColor=#d5e8d4;strokeColor=#82b366;" vertex="1" parent="1">
          <mxGeometry x="467" y="853" width="80" height="80" as="geometry" />
        </mxCell>
        <mxCell id="ZR4C9pEXmQT03OREp36A-57" value="" style="ellipse;whiteSpace=wrap;html=1;aspect=fixed;strokeColor=#82b366;fillColor=#d5e8d4;" vertex="1" parent="1">
          <mxGeometry x="328.75" y="851" width="80" height="80" as="geometry" />
        </mxCell>
        <mxCell id="ZR4C9pEXmQT03OREp36A-58" value="" style="html=1;outlineConnect=0;whiteSpace=wrap;fillColor=#AFFFAF;shape=mxgraph.archimate3.node;strokeWidth=2;" vertex="1" parent="1">
          <mxGeometry x="341.25" y="871" width="55" height="40" as="geometry" />
        </mxCell>
        <mxCell id="ZR4C9pEXmQT03OREp36A-59" value="" style="html=1;outlineConnect=0;whiteSpace=wrap;fillColor=#AFFFAF;shape=mxgraph.archimate3.device;strokeWidth=2;" vertex="1" parent="1">
          <mxGeometry x="477" y="873" width="60" height="35" as="geometry" />
        </mxCell>
        <mxCell id="ZR4C9pEXmQT03OREp36A-60" value="" style="edgeStyle=elbowEdgeStyle;html=1;endArrow=open;elbow=vertical;endFill=1;rounded=0;entryX=1;entryY=0.5;entryDx=0;entryDy=0;exitX=-0.017;exitY=0.478;exitDx=0;exitDy=0;exitPerimeter=0;" edge="1" parent="1" source="ZR4C9pEXmQT03OREp36A-56" target="ZR4C9pEXmQT03OREp36A-57">
          <mxGeometry width="160" relative="1" as="geometry">
            <mxPoint x="461.25" y="890.58" as="sourcePoint" />
            <mxPoint x="621.25" y="890.58" as="targetPoint" />
          </mxGeometry>
        </mxCell>
        <mxCell id="ZR4C9pEXmQT03OREp36A-61" value="Serves" style="text;html=1;align=center;verticalAlign=middle;resizable=0;points=[];autosize=1;strokeColor=none;fillColor=none;" vertex="1" parent="1">
          <mxGeometry x="405" y="862" width="60" height="30" as="geometry" />
        </mxCell>
        <mxCell id="ZR4C9pEXmQT03OREp36A-63" value="Device" style="text;html=1;align=center;verticalAlign=middle;resizable=0;points=[];autosize=1;strokeColor=none;fillColor=none;" vertex="1" parent="1">
          <mxGeometry x="340.75" y="811" width="60" height="30" as="geometry" />
        </mxCell>
        <mxCell id="ZR4C9pEXmQT03OREp36A-64" value="" style="ellipse;whiteSpace=wrap;html=1;aspect=fixed;fillColor=#d5e8d4;strokeColor=#82b366;" vertex="1" parent="1">
          <mxGeometry x="762" y="848.5" width="80" height="80" as="geometry" />
        </mxCell>
        <mxCell id="ZR4C9pEXmQT03OREp36A-65" value="" style="ellipse;whiteSpace=wrap;html=1;aspect=fixed;fillColor=#d5e8d4;strokeColor=#82b366;" vertex="1" parent="1">
          <mxGeometry x="622" y="853" width="80" height="80" as="geometry" />
        </mxCell>
        <mxCell id="ZR4C9pEXmQT03OREp36A-66" value="" style="html=1;outlineConnect=0;whiteSpace=wrap;fillColor=#AFFFAF;shape=mxgraph.archimate3.function;strokeWidth=2;" vertex="1" parent="1">
          <mxGeometry x="644.5" y="870" width="37.5" height="33" as="geometry" />
        </mxCell>
        <mxCell id="ZR4C9pEXmQT03OREp36A-67" value="" style="html=1;outlineConnect=0;whiteSpace=wrap;fillColor=#AFFFAF;shape=mxgraph.archimate3.sysSw;strokeWidth=2;" vertex="1" parent="1">
          <mxGeometry x="782" y="868.5" width="40" height="40" as="geometry" />
        </mxCell>
        <mxCell id="ZR4C9pEXmQT03OREp36A-68" value="" style="edgeStyle=elbowEdgeStyle;html=1;endArrow=block;elbow=vertical;endFill=0;dashed=1;rounded=0;" edge="1" parent="1">
          <mxGeometry width="160" relative="1" as="geometry">
            <mxPoint x="702" y="893" as="sourcePoint" />
            <mxPoint x="762" y="893" as="targetPoint" />
          </mxGeometry>
        </mxCell>
        <mxCell id="ZR4C9pEXmQT03OREp36A-69" value="Technology Function" style="text;html=1;align=center;verticalAlign=middle;resizable=0;points=[];autosize=1;strokeColor=none;fillColor=none;" vertex="1" parent="1">
          <mxGeometry x="612" y="818.5" width="130" height="30" as="geometry" />
        </mxCell>
        <mxCell id="ZR4C9pEXmQT03OREp36A-70" value="" style="html=1;outlineConnect=0;whiteSpace=wrap;fillColor=#AFFFAF;shape=mxgraph.archimate3.function;strokeWidth=2;" vertex="1" parent="1">
          <mxGeometry x="306.75" y="523.5" width="37.5" height="33" as="geometry" />
        </mxCell>
        <mxCell id="ZR4C9pEXmQT03OREp36A-71" value="" style="ellipse;whiteSpace=wrap;html=1;aspect=fixed;fillColor=#d5e8d4;strokeColor=#82b366;" vertex="1" parent="1">
          <mxGeometry x="12" y="1012" width="80" height="80" as="geometry" />
        </mxCell>
        <mxCell id="ZR4C9pEXmQT03OREp36A-72" value="" style="ellipse;whiteSpace=wrap;html=1;aspect=fixed;strokeColor=#82b366;fillColor=#d5e8d4;" vertex="1" parent="1">
          <mxGeometry x="182" y="1012" width="80" height="80" as="geometry" />
        </mxCell>
        <mxCell id="ZR4C9pEXmQT03OREp36A-73" value="" style="html=1;outlineConnect=0;whiteSpace=wrap;fillColor=#AFFFAF;shape=mxgraph.archimate3.node;strokeWidth=2;" vertex="1" parent="1">
          <mxGeometry x="194.5" y="1032" width="55" height="40" as="geometry" />
        </mxCell>
        <mxCell id="ZR4C9pEXmQT03OREp36A-74" value="" style="html=1;outlineConnect=0;whiteSpace=wrap;fillColor=default;shape=mxgraph.archimate3.network;strokeWidth=2;" vertex="1" parent="1">
          <mxGeometry x="20" y="1022" width="65" height="50" as="geometry" />
        </mxCell>
        <mxCell id="ZR4C9pEXmQT03OREp36A-75" value="Communication Network" style="text;html=1;align=center;verticalAlign=middle;resizable=0;points=[];autosize=1;strokeColor=none;fillColor=none;" vertex="1" parent="1">
          <mxGeometry x="8" y="970" width="150" height="30" as="geometry" />
        </mxCell>
        <mxCell id="ZR4C9pEXmQT03OREp36A-76" value="" style="html=1;startArrow=diamondThin;startFill=1;edgeStyle=elbowEdgeStyle;elbow=vertical;startSize=10;endArrow=none;endFill=0;rounded=0;" edge="1" parent="1">
          <mxGeometry width="160" relative="1" as="geometry">
            <mxPoint x="92" y="752" as="sourcePoint" />
            <mxPoint x="182" y="752" as="targetPoint" />
          </mxGeometry>
        </mxCell>
        <mxCell id="ZR4C9pEXmQT03OREp36A-77" value="" style="endArrow=block;html=1;endFill=1;startArrow=oval;startFill=1;edgeStyle=elbowEdgeStyle;elbow=vertical;rounded=0;" edge="1" parent="1">
          <mxGeometry width="160" relative="1" as="geometry">
            <mxPoint x="92" y="1051.76" as="sourcePoint" />
            <mxPoint x="182" y="1051.76" as="targetPoint" />
          </mxGeometry>
        </mxCell>
        <mxCell id="ZR4C9pEXmQT03OREp36A-78" value="Assigned" style="text;html=1;align=center;verticalAlign=middle;resizable=0;points=[];autosize=1;strokeColor=none;fillColor=none;" vertex="1" parent="1">
          <mxGeometry x="97" y="1022" width="70" height="30" as="geometry" />
        </mxCell>
        <mxCell id="ZR4C9pEXmQT03OREp36A-79" value="" style="ellipse;whiteSpace=wrap;html=1;aspect=fixed;fillColor=#d5e8d4;strokeColor=#82b366;" vertex="1" parent="1">
          <mxGeometry x="467" y="1013" width="80" height="80" as="geometry" />
        </mxCell>
        <mxCell id="ZR4C9pEXmQT03OREp36A-80" value="" style="ellipse;whiteSpace=wrap;html=1;aspect=fixed;strokeColor=#82b366;fillColor=#d5e8d4;" vertex="1" parent="1">
          <mxGeometry x="330.75" y="1013" width="80" height="80" as="geometry" />
        </mxCell>
        <mxCell id="ZR4C9pEXmQT03OREp36A-81" value="" style="html=1;outlineConnect=0;whiteSpace=wrap;fillColor=#AFFFAF;shape=mxgraph.archimate3.node;strokeWidth=2;" vertex="1" parent="1">
          <mxGeometry x="343.25" y="1033" width="55" height="40" as="geometry" />
        </mxCell>
        <mxCell id="ZR4C9pEXmQT03OREp36A-82" value="" style="html=1;outlineConnect=0;whiteSpace=wrap;fillColor=#AFFFAF;shape=mxgraph.archimate3.path;strokeWidth=6;" vertex="1" parent="1">
          <mxGeometry x="481.5" y="1037" width="50" height="30" as="geometry" />
        </mxCell>
        <mxCell id="ZR4C9pEXmQT03OREp36A-83" value="" style="edgeStyle=elbowEdgeStyle;html=1;endArrow=block;dashed=1;elbow=vertical;endFill=1;dashPattern=6 4;rounded=0;" edge="1" parent="1">
          <mxGeometry width="160" relative="1" as="geometry">
            <mxPoint x="465" y="1053" as="sourcePoint" />
            <mxPoint x="415" y="1053" as="targetPoint" />
          </mxGeometry>
        </mxCell>
        <mxCell id="ZR4C9pEXmQT03OREp36A-84" value="Flow" style="text;html=1;align=center;verticalAlign=middle;resizable=0;points=[];autosize=1;strokeColor=none;fillColor=none;" vertex="1" parent="1">
          <mxGeometry x="410" y="1023" width="50" height="30" as="geometry" />
        </mxCell>
        <mxCell id="ZR4C9pEXmQT03OREp36A-85" value="Path" style="text;html=1;align=center;verticalAlign=middle;resizable=0;points=[];autosize=1;strokeColor=none;fillColor=none;" vertex="1" parent="1">
          <mxGeometry x="345" y="971" width="50" height="30" as="geometry" />
        </mxCell>
      </root>
    </mxGraphModel>
  </diagram>
  <diagram id="xgxRLnTxSb5ZK0KUcAQg" name="Agile Repository">
    <mxGraphModel dx="1434" dy="754" grid="1" gridSize="10" guides="1" tooltips="1" connect="1" arrows="1" fold="1" page="1" pageScale="1" pageWidth="850" pageHeight="1100" math="0" shadow="0">
      <root>
        <mxCell id="0" />
        <mxCell id="1" parent="0" />
        <mxCell id="2bSDJcgA_aXdGEu6VbDg-1" value="EA&lt;div&gt;Repository&lt;/div&gt;" style="ellipse;whiteSpace=wrap;html=1;aspect=fixed;fillColor=#d5e8d4;strokeColor=#82b366;" parent="1" vertex="1">
          <mxGeometry x="133" y="30" width="80" height="80" as="geometry" />
        </mxCell>
        <mxCell id="2bSDJcgA_aXdGEu6VbDg-2" value="Local&lt;div&gt;Estract&lt;/div&gt;" style="ellipse;whiteSpace=wrap;html=1;aspect=fixed;fillColor=#d5e8d4;strokeColor=#82b366;" parent="1" vertex="1">
          <mxGeometry x="40" y="130" width="80" height="80" as="geometry" />
        </mxCell>
        <mxCell id="2bSDJcgA_aXdGEu6VbDg-3" value="Solution&lt;div&gt;Design&lt;/div&gt;" style="ellipse;whiteSpace=wrap;html=1;aspect=fixed;fillColor=#d5e8d4;strokeColor=#82b366;" parent="1" vertex="1">
          <mxGeometry x="133" y="220" width="80" height="80" as="geometry" />
        </mxCell>
        <mxCell id="2bSDJcgA_aXdGEu6VbDg-4" value="Merge&lt;div&gt;Model&lt;/div&gt;" style="ellipse;whiteSpace=wrap;html=1;aspect=fixed;fillColor=#d5e8d4;strokeColor=#82b366;" parent="1" vertex="1">
          <mxGeometry x="220" y="128" width="80" height="80" as="geometry" />
        </mxCell>
        <mxCell id="2bSDJcgA_aXdGEu6VbDg-5" value="" style="shape=flexArrow;endArrow=classic;html=1;rounded=0;" parent="1" edge="1">
          <mxGeometry width="50" height="50" relative="1" as="geometry">
            <mxPoint x="133" y="98" as="sourcePoint" />
            <mxPoint x="113" y="128" as="targetPoint" />
          </mxGeometry>
        </mxCell>
        <mxCell id="2bSDJcgA_aXdGEu6VbDg-7" value="" style="shape=flexArrow;endArrow=classic;html=1;rounded=0;" parent="1" edge="1">
          <mxGeometry width="50" height="50" relative="1" as="geometry">
            <mxPoint x="110" y="214" as="sourcePoint" />
            <mxPoint x="133" y="240" as="targetPoint" />
          </mxGeometry>
        </mxCell>
        <mxCell id="2bSDJcgA_aXdGEu6VbDg-8" value="" style="shape=flexArrow;endArrow=classic;html=1;rounded=0;" parent="1" edge="1">
          <mxGeometry width="50" height="50" relative="1" as="geometry">
            <mxPoint x="243" y="124" as="sourcePoint" />
            <mxPoint x="220" y="98" as="targetPoint" />
          </mxGeometry>
        </mxCell>
        <mxCell id="2bSDJcgA_aXdGEu6VbDg-9" value="" style="shape=flexArrow;endArrow=classic;html=1;rounded=0;" parent="1" edge="1">
          <mxGeometry width="50" height="50" relative="1" as="geometry">
            <mxPoint x="213" y="238" as="sourcePoint" />
            <mxPoint x="241" y="210" as="targetPoint" />
          </mxGeometry>
        </mxCell>
        <mxCell id="2bSDJcgA_aXdGEu6VbDg-31" value="" style="group" parent="1" vertex="1" connectable="0">
          <mxGeometry x="20" y="350" width="56" height="56" as="geometry" />
        </mxCell>
        <mxCell id="2bSDJcgA_aXdGEu6VbDg-23" value="" style="endArrow=none;html=1;rounded=0;entryX=0.5;entryY=0.143;entryDx=0;entryDy=0;entryPerimeter=0;exitX=0.498;exitY=0.907;exitDx=0;exitDy=0;exitPerimeter=0;" parent="2bSDJcgA_aXdGEu6VbDg-31" source="2bSDJcgA_aXdGEu6VbDg-27" edge="1">
          <mxGeometry width="50" height="50" relative="1" as="geometry">
            <mxPoint x="27.902933333333337" y="27.062933333333337" as="sourcePoint" />
            <mxPoint x="27.902933333333337" y="6.906666666666667" as="targetPoint" />
          </mxGeometry>
        </mxCell>
        <mxCell id="2bSDJcgA_aXdGEu6VbDg-27" value="" style="shape=image;verticalLabelPosition=bottom;labelBackgroundColor=default;verticalAlign=top;aspect=fixed;imageAspect=0;image=data:image/svg+xml,PD94bWwgdmVyc2lvbj0iMS4wIiA/Pjxzdmcgdmlld0JveD0iMCAwIDI1NiAyNTYiIHhtbG5zPSJodHRwOi8vd3d3LnczLm9yZy8yMDAwL3N2ZyI+PHJlY3QgZmlsbD0ibm9uZSIgaGVpZ2h0PSIyNTYiIHdpZHRoPSIyNTYiLz48cGF0aCBkPSJNMjIwLDE3NS4zVjgwLjdhOC4xLDguMSwwLDAsMC00LjEtN2wtODQtNDcuNWE3LjgsNy44LDAsMCwwLTcuOCwwbC04NCw0Ny41YTguMSw4LjEsMCwwLDAtNC4xLDd2OTQuNmE4LjEsOC4xLDAsMCwwLDQuMSw3bDg0LDQ3LjVhNy44LDcuOCwwLDAsMCw3LjgsMGw4NC00Ny41QTguMSw4LjEsMCwwLDAsMjIwLDE3NS4zWiIgZmlsbD0ibm9uZSIgc3Ryb2tlPSIjMDAwIiBzdHJva2UtbGluZWNhcD0icm91bmQiIHN0cm9rZS1saW5lam9pbj0icm91bmQiIHN0cm9rZS13aWR0aD0iMTIiLz48Y2lyY2xlIGN4PSIxMjgiIGN5PSIxMjgiIGZpbGw9Im5vbmUiIHI9IjM2IiBzdHJva2U9IiMwMDAiIHN0cm9rZS1saW5lY2FwPSJyb3VuZCIgc3Ryb2tlLWxpbmVqb2luPSJyb3VuZCIgc3Ryb2tlLXdpZHRoPSIxMiIvPjwvc3ZnPg==;" parent="2bSDJcgA_aXdGEu6VbDg-31" vertex="1">
          <mxGeometry width="56" height="56" as="geometry" />
        </mxCell>
        <mxCell id="2bSDJcgA_aXdGEu6VbDg-28" value="" style="endArrow=none;html=1;rounded=0;exitX=0.867;exitY=0.707;exitDx=0;exitDy=0;exitPerimeter=0;" parent="2bSDJcgA_aXdGEu6VbDg-31" source="2bSDJcgA_aXdGEu6VbDg-27" edge="1">
          <mxGeometry width="50" height="50" relative="1" as="geometry">
            <mxPoint x="-11.2" y="35.84" as="sourcePoint" />
            <mxPoint x="7.466666666666668" y="17.173333333333332" as="targetPoint" />
          </mxGeometry>
        </mxCell>
        <mxCell id="2bSDJcgA_aXdGEu6VbDg-29" value="" style="endArrow=none;html=1;rounded=0;entryX=0.133;entryY=0.707;entryDx=0;entryDy=0;entryPerimeter=0;" parent="2bSDJcgA_aXdGEu6VbDg-31" target="2bSDJcgA_aXdGEu6VbDg-27" edge="1">
          <mxGeometry width="50" height="50" relative="1" as="geometry">
            <mxPoint x="48.53333333333334" y="16.426666666666666" as="sourcePoint" />
            <mxPoint x="14.186666666666666" y="39.57333333333334" as="targetPoint" />
          </mxGeometry>
        </mxCell>
        <mxCell id="MkF8S7k1-l8A8SyvctlM-5" value="" style="shape=image;verticalLabelPosition=bottom;labelBackgroundColor=default;verticalAlign=top;aspect=fixed;imageAspect=0;image=data:image/png,iVBORw0KGgoAAAANSUhEUgAAAHsAAACJCAYAAAAMnUdtAAAAAXNSR0IArs4c6QAAAARzQklUCAgICHwIZIgAAAomSURBVHgB7Z2NccREDEZdAh1ACZRACXQAHUAHSQdJB9ABdEAJlEAJKQHmeaLMSqx9Xnt/pD2/mcxFvkvO68+rT9b6kmW5uZmQb5ZleVmW5a9lWf79/Pp7WZafJxzrU4Og/yQii9jyyHO36MH5wcxkZvUfn6K/Lsv6fHoS8P33wcf8dHyXiMrsTWcuIrONR8HO/N+WZf0dN44RX/74FJRHRGW7kBNbkOckvePxnDg3zvhlWb5ERixmZyqyIILymANxf0/8Pc0KN4PBl6mqZTbiy2zb4pHYAqKnlfst+kByYuyJLBwVW7j9fCCk5rdkJud8eY9SsYVfzeXbXcQ1xBZfpO33DV/e46zYkPNzToKbipCe8czUlznwZ7gitpAT/W7KXASR0yKJQuyIL+9RQ2zB+jn7evYkfFo4YHiizGR8uVa6rCm2YEW//fwA1pdLi68jtBAbOEHld8tJSlPmJgOzA3HlQNHDbpESyRC8B8VdC9jnuymzgfXlR02Rq3BSITaptiUsqKRFJd9frTfCwgxIi69eHapeYgtP7ec9fHmP3mIL+HlqUzSGWtiUG44uVrRklNjwFH6OV6X+1dqX9xgptjDKwppCkWJ9eXSR4kFsgX1JJ0HI6/OtxQoPeBJbCLnIYosvuZ5luxc8ig05P3fblPnRpCTSt8dq06vYQk509tkFtilSY7GiJd7FFuzk4bgOmzy8cavFipZEEVtgf4cVcdaXWyxWtCSa2MDEyi2yNK2FOFBpF6jVYkVLIootdPFz68sjmyJXiSy20GSRhTPJNkU4WJGZQWyBsVz2c/FlWVuO5st7zCS2cHqRxS5WnLmD0zMzig1Ffm5TdmRf3mNWsQWrY/b6nI2StjkgszK72ALjlCsnJu4XcgBEbB5DrsAcQMba+rakkdjZjZ6Me0Uqboze3iznthl/kpnFzhXWou3X7JbpLh2ZIrMPxqxiMylFR8nM6MkXMc+tEPBlcdWMr8RsYh+5C0jpq4IMHKDLF+9OmEVs29VEH7blUPqqYANSe64Zz/ZIRBeb41262qj0VcEDovs51sR4/3wwTm9I8SW+zCOTT+qsPZS+KjgIoqfX5qQRDqR3SHWM96s6DYDtapauNip9VVBIND+PJDb7mk4oTtAtX95D6auCk5BSIhRxEcTO3YJ9JWsqfVVwgZyf1/pcdS08i43/Xvl7MVsofVVQgZzopHsPeBTbFl/oUXO1Uemrgop4bMp4E9vWPPgyk6UmSl8VNMAOaOQiixex2Q+ElWN/tvg6grzHigoawdmaa8ocuU6syWixOQ6pyFwvt7Y4pa8KGjPaz0eJbX25pClyFaWvCjqB6OmlWq+mzAixbVMEG+uZ0ZS+KuhMbz/vKTbvlZ7QLX15D6WvCgbRqynTQ2zeI/VlBGfbKJS+KhhIzs9rN2Vaik1qLl2R6oHSVwUOyIleq2JtIfbI4usISl8VOML6efa22EJqi80+yrIjx5H0zcnqCaWvChxiRb/SlKklNr8n9eVRxdcRlL4qcAqzpUZT5qrY7EcqMsVXLYtphdJXBc656udnxcaXW6xI9UDpq4IgIHp6DXv08qZUbFt8caxqrkj1QOmrgmCU+nmJ2HbVzmPxdQSlrwqC8qgpg8iIJZXz3gKEvFaOC1cBbIuKjGNFBYHJ+TlNGT4tIWO0j+nHm/h5+V+dvI4TonZTZwQy5hUVTIAVbR3fy8vLvx8fH+vX29ubjJlH0nX68RlEJlPg1zMgY11RwUR8NTwQ1/L6+irjTh+vXMN7Rca3ooLJWMfGjLawLUnvnpsiV5FxrqhgMtaC7IDYM6P0VcFkrN0uUrbl/f1dxk21PTMyzhUVTAbF1zo+xJUCLePXR5syEVH6qmAivgo0ETzzSEGWduLuAi0YtilCKud6eU3pn4Lj5Wmj5FFTJjIy5hUVBIbr61RQZqxdkeI1jJfnLDxn/6aM/fmIKH1VEJCSFak9sQVek3bScidNJJS+KgjEmRWpI2ILzOrUz8ka/Hw0lL4qCAJ+a4Xgo66PKBFbsKJHK+KUvipwji2+SlekzogN/FzuTpkIKH1V4BQONjNK9vXsitRZsQV+PloRJ8dsRQXOsL58dUXqqthCkz/w3gilrwockfuMFGJdoZbYQgQ/V/qqwAH4Ml4s+0UVnDZArlBbbAE/XxddPvfbUxEn+7SigoHk/nBMLZGFVmIDv9ujnyt9VTCAraZIC1qKLfAenpoySl8VdMQWX+xH69t0e4gtWD8f1ZRR+qqgE6MORE+xBTvW3n6u9FVBY2xTpGbxdYQRYgPvS9aSY00xl97Z2hJ5zxUVNILBIqy816jFhVFiC7x/7yJOjvmKCiojvizvcbUpcpXRYgs9mzJy7FdUUJH0Xmzeo3XxdQQvYgs9/Fzpq4IK4Mt2Rar29fJZvIkt2KYMnxhlX2ug9FXBBWzxheBeRBa8ig3sWws/V/qq4ATsZI0VqR54FltgH2sWs0pfFRQgxZf0hEcXX0eIILZg/fxsU0bpq4KD2BWp0n9lMJIz4x2JFb20KaPGq4IH4MGtVqR6UTJeL5CRzjZl1HhVsEFuRYpPW0TkyHi9guilRZwarwoMWytSbI/K3nijQIZNL2/5ngmZQ41XBZ/Y4ovXeGiK1CA33qgc8XM1XhV8fooiPWvOVoFeseOdgb2mjBqvBLYpgsjemiI1kPHOxpafq/HKdbJsJCY9zIqMc1YQPW3KMF40XZEnIjRFajC72ELq52i8wkYOAD7NWTE7zyI2WkrtpTK1zG6eVE9MyDOInV6a/e/PiHAW2M7YrLN8ZrFzRfamjmme56CU9mEjMKPYuebXob/OyJlwtg8bgZnEzjW/uOYu7nAiemkfNgKziG2zMHXXZso+Smr2HCiKuK0+bASii53zZbZVxZ5JUf08qtjM2vRjRc2bX3gBniAHjEfuIr2cPjoi+x4F68vdm1+R/TyS2PaOoKHZFNHT63P83PtNDRHExoPT40rxVd2XzxLJzz2LzeSRbib76Xry4OfsoBzQoWlnA9k3T+DLIf+VVM7PD3VzOuFNbI8fkyomJzrpfjRexMaD0yxI+o7cv1ixfl6l03OB0WIjsvVlN8VXLazoo/yc61QEL+4fX4T3Y8xysrEfnuytOqT20Ysskjq/rT66PMObIqMZ6ec9xbbZbLSFDcUWKQjRukjpIbb1ZUSezpfPYmdASz9vKTYZq+tiRWR6LLK0EPvpffksrf28ttiuFiuiguj2epR0f5VaYuPBbhcrolLbz6+KnTsJ7+KrMjQgRCgaE2eLOPkdpdfZ+HLIxYqo5Py8tAtVKrYtvjjRZvn4cghyoh/18xKxSc/yekR+6qbIaKyfHxFDxNtL44icFocUYrcvO8GKvufne2KTsp9qsSIqpPZcU8aSE9v6cvc7OG/O8cjPrdg2K0T6m243n7CgIsJSXPF9WnD9ZHwZj759OTh25iJ8+sVJwGtuJgJBbXsTj8evp+c/h5Gvjh5zKsUAAAAASUVORK5CYII=;" parent="1" vertex="1">
          <mxGeometry x="150.56" y="140" width="35.91" height="40" as="geometry" />
        </mxCell>
        <mxCell id="MkF8S7k1-l8A8SyvctlM-6" value="&lt;font style=&quot;font-size: 20px;&quot;&gt;EA Model Example&lt;/font&gt;" style="text;html=1;align=center;verticalAlign=middle;resizable=0;points=[];autosize=1;strokeColor=none;fillColor=none;" parent="1" vertex="1">
          <mxGeometry x="415" y="73" width="190" height="40" as="geometry" />
        </mxCell>
        <mxCell id="-co7lvV5u1bhD1ZxMr7i-1" value="" style="shape=image;verticalLabelPosition=bottom;labelBackgroundColor=default;verticalAlign=top;aspect=fixed;imageAspect=0;image=data:image/png,iVBORw0KGgoAAAANSUhEUgAAAHsAAACJCAYAAAAMnUdtAAAAAXNSR0IArs4c6QAAAARzQklUCAgICHwIZIgAAAomSURBVHgB7Z2NccREDEZdAh1ACZRACXQAHUAHSQdJB9ABdEAJlEAJKQHmeaLMSqx9Xnt/pD2/mcxFvkvO68+rT9b6kmW5uZmQb5ZleVmW5a9lWf79/Pp7WZafJxzrU4Og/yQii9jyyHO36MH5wcxkZvUfn6K/Lsv6fHoS8P33wcf8dHyXiMrsTWcuIrONR8HO/N+WZf0dN44RX/74FJRHRGW7kBNbkOckvePxnDg3zvhlWb5ERixmZyqyIILymANxf0/8Pc0KN4PBl6mqZTbiy2zb4pHYAqKnlfst+kByYuyJLBwVW7j9fCCk5rdkJud8eY9SsYVfzeXbXcQ1xBZfpO33DV/e46zYkPNzToKbipCe8czUlznwZ7gitpAT/W7KXASR0yKJQuyIL+9RQ2zB+jn7evYkfFo4YHiizGR8uVa6rCm2YEW//fwA1pdLi68jtBAbOEHld8tJSlPmJgOzA3HlQNHDbpESyRC8B8VdC9jnuymzgfXlR02Rq3BSITaptiUsqKRFJd9frTfCwgxIi69eHapeYgtP7ec9fHmP3mIL+HlqUzSGWtiUG44uVrRklNjwFH6OV6X+1dqX9xgptjDKwppCkWJ9eXSR4kFsgX1JJ0HI6/OtxQoPeBJbCLnIYosvuZ5luxc8ig05P3fblPnRpCTSt8dq06vYQk509tkFtilSY7GiJd7FFuzk4bgOmzy8cavFipZEEVtgf4cVcdaXWyxWtCSa2MDEyi2yNK2FOFBpF6jVYkVLIootdPFz68sjmyJXiSy20GSRhTPJNkU4WJGZQWyBsVz2c/FlWVuO5st7zCS2cHqRxS5WnLmD0zMzig1Ffm5TdmRf3mNWsQWrY/b6nI2StjkgszK72ALjlCsnJu4XcgBEbB5DrsAcQMba+rakkdjZjZ6Me0Uqboze3iznthl/kpnFzhXWou3X7JbpLh2ZIrMPxqxiMylFR8nM6MkXMc+tEPBlcdWMr8RsYh+5C0jpq4IMHKDLF+9OmEVs29VEH7blUPqqYANSe64Zz/ZIRBeb41262qj0VcEDovs51sR4/3wwTm9I8SW+zCOTT+qsPZS+KjgIoqfX5qQRDqR3SHWM96s6DYDtapauNip9VVBIND+PJDb7mk4oTtAtX95D6auCk5BSIhRxEcTO3YJ9JWsqfVVwgZyf1/pcdS08i43/Xvl7MVsofVVQgZzopHsPeBTbFl/oUXO1Uemrgop4bMp4E9vWPPgyk6UmSl8VNMAOaOQiixex2Q+ElWN/tvg6grzHigoawdmaa8ocuU6syWixOQ6pyFwvt7Y4pa8KGjPaz0eJbX25pClyFaWvCjqB6OmlWq+mzAixbVMEG+uZ0ZS+KuhMbz/vKTbvlZ7QLX15D6WvCgbRqynTQ2zeI/VlBGfbKJS+KhhIzs9rN2Vaik1qLl2R6oHSVwUOyIleq2JtIfbI4usISl8VOML6efa22EJqi80+yrIjx5H0zcnqCaWvChxiRb/SlKklNr8n9eVRxdcRlL4qcAqzpUZT5qrY7EcqMsVXLYtphdJXBc656udnxcaXW6xI9UDpq4IgIHp6DXv08qZUbFt8caxqrkj1QOmrgmCU+nmJ2HbVzmPxdQSlrwqC8qgpg8iIJZXz3gKEvFaOC1cBbIuKjGNFBYHJ+TlNGT4tIWO0j+nHm/h5+V+dvI4TonZTZwQy5hUVTIAVbR3fy8vLvx8fH+vX29ubjJlH0nX68RlEJlPg1zMgY11RwUR8NTwQ1/L6+irjTh+vXMN7Rca3ooLJWMfGjLawLUnvnpsiV5FxrqhgMtaC7IDYM6P0VcFkrN0uUrbl/f1dxk21PTMyzhUVTAbF1zo+xJUCLePXR5syEVH6qmAivgo0ETzzSEGWduLuAi0YtilCKud6eU3pn4Lj5Wmj5FFTJjIy5hUVBIbr61RQZqxdkeI1jJfnLDxn/6aM/fmIKH1VEJCSFak9sQVek3bScidNJJS+KgjEmRWpI2ILzOrUz8ka/Hw0lL4qCAJ+a4Xgo66PKBFbsKJHK+KUvipwji2+SlekzogN/FzuTpkIKH1V4BQONjNK9vXsitRZsQV+PloRJ8dsRQXOsL58dUXqqthCkz/w3gilrwockfuMFGJdoZbYQgQ/V/qqwAH4Ml4s+0UVnDZArlBbbAE/XxddPvfbUxEn+7SigoHk/nBMLZGFVmIDv9ujnyt9VTCAraZIC1qKLfAenpoySl8VdMQWX+xH69t0e4gtWD8f1ZRR+qqgE6MORE+xBTvW3n6u9FVBY2xTpGbxdYQRYgPvS9aSY00xl97Z2hJ5zxUVNILBIqy816jFhVFiC7x/7yJOjvmKCiojvizvcbUpcpXRYgs9mzJy7FdUUJH0Xmzeo3XxdQQvYgs9/Fzpq4IK4Mt2Rar29fJZvIkt2KYMnxhlX2ug9FXBBWzxheBeRBa8ig3sWws/V/qq4ATsZI0VqR54FltgH2sWs0pfFRQgxZf0hEcXX0eIILZg/fxsU0bpq4KD2BWp0n9lMJIz4x2JFb20KaPGq4IH4MGtVqR6UTJeL5CRzjZl1HhVsEFuRYpPW0TkyHi9guilRZwarwoMWytSbI/K3nijQIZNL2/5ngmZQ41XBZ/Y4ovXeGiK1CA33qgc8XM1XhV8fooiPWvOVoFeseOdgb2mjBqvBLYpgsjemiI1kPHOxpafq/HKdbJsJCY9zIqMc1YQPW3KMF40XZEnIjRFajC72ELq52i8wkYOAD7NWTE7zyI2WkrtpTK1zG6eVE9MyDOInV6a/e/PiHAW2M7YrLN8ZrFzRfamjmme56CU9mEjMKPYuebXob/OyJlwtg8bgZnEzjW/uOYu7nAiemkfNgKziG2zMHXXZso+Smr2HCiKuK0+bASii53zZbZVxZ5JUf08qtjM2vRjRc2bX3gBniAHjEfuIr2cPjoi+x4F68vdm1+R/TyS2PaOoKHZFNHT63P83PtNDRHExoPT40rxVd2XzxLJzz2LzeSRbib76Xry4OfsoBzQoWlnA9k3T+DLIf+VVM7PD3VzOuFNbI8fkyomJzrpfjRexMaD0yxI+o7cv1ixfl6l03OB0WIjsvVlN8VXLazoo/yc61QEL+4fX4T3Y8xysrEfnuytOqT20Ysskjq/rT66PMObIqMZ6ec9xbbZbLSFDcUWKQjRukjpIbb1ZUSezpfPYmdASz9vKTYZq+tiRWR6LLK0EPvpffksrf28ttiuFiuiguj2epR0f5VaYuPBbhcrolLbz6+KnTsJ7+KrMjQgRCgaE2eLOPkdpdfZ+HLIxYqo5Py8tAtVKrYtvjjRZvn4cghyoh/18xKxSc/yekR+6qbIaKyfHxFDxNtL44icFocUYrcvO8GKvufne2KTsp9qsSIqpPZcU8aSE9v6cvc7OG/O8cjPrdg2K0T6m243n7CgIsJSXPF9WnD9ZHwZj759OTh25iJ8+sVJwGtuJgJBbXsTj8evp+c/h5Gvjh5zKsUAAAAASUVORK5CYII=;" vertex="1" parent="1">
          <mxGeometry x="360" y="200" width="278.31" height="310" as="geometry" />
        </mxCell>
      </root>
    </mxGraphModel>
  </diagram>
</mxfile>
